<svg id="Layer_1" data-name="Layer 1" xmlns="http://www.w3.org/2000/svg" viewBox="0 0 44 44"><defs><style>.cls-1{fill:#fff;}.cls-2{fill:#512772;}</style></defs><title>ico_safety</title><circle class="cls-1" cx="22" cy="22" r="22"/><path class="cls-2" d="M22,9.6l-9.65,5.22V23.4c0,5,3,8.61,9.5,11.31l.15.06.15-.06c6.48-2.7,9.5-6.3,9.5-11.31V14.82Zm8.88,13.8c0,4.63-2.82,8-8.88,10.53-6.06-2.56-8.88-5.9-8.88-10.53V15.28L22,10.47l8.88,4.81Z"/><path class="cls-2" d="M18.45,21.65a.77.77,0,0,0-1.09,1.09L20.64,26l6-6a.77.77,0,0,0-1.09-1.09l-4.91,4.91Z"/></svg>