<svg id="Layer_1" data-name="Layer 1" xmlns="http://www.w3.org/2000/svg" viewBox="0 0 44 44"><defs><style>.cls-1{fill:#fff;}.cls-2{fill:#512772;}</style></defs><title>ico_gmo</title><circle class="cls-1" cx="22" cy="22" r="22"/><path class="cls-2" d="M23.79,28.58l-1.11-.77L25,26.23a5.73,5.73,0,0,0-.29-9.59l-1.92-1.17L23.5,15a5.76,5.76,0,0,0,2.75-4.89V8.88a.39.39,0,0,0-.78,0v.77H18.53V8.88a.39.39,0,0,0-.78,0v1.24A5.76,5.76,0,0,0,20.5,15l.76.46-1.92,1.17a5.73,5.73,0,0,0-.29,9.59l2.27,1.58-1.11.77a5.73,5.73,0,0,0-2.46,4.7v1.84a.39.39,0,0,0,.78,0v-.77h6.94v.77a.39.39,0,0,0,.78,0V33.28A5.73,5.73,0,0,0,23.79,28.58ZM17.4,22h9.2a4.92,4.92,0,0,1-.83,2.32H18.23A4.92,4.92,0,0,1,17.4,22Zm8.46-3.1a4.86,4.86,0,0,1,.75,2.33H17.39a4.86,4.86,0,0,1,.75-2.33h7.72Zm-7.31-8.48h6.9a4.78,4.78,0,0,1-.36,1.6V12h-6.2A4.72,4.72,0,0,1,18.55,10.42Zm2.35,3.93a4.86,4.86,0,0,1-1.61-1.61h5.42a4.86,4.86,0,0,1-1.61,1.61L22,15Zm-1.15,3L22,15.92l2.25,1.38a4.67,4.67,0,0,1,1,.84H18.72A4.67,4.67,0,0,1,19.75,17.3Zm-.26,8.29a5.68,5.68,0,0,1-.6-.5h6.22a5.68,5.68,0,0,1-.6.5L22,27.34Zm1.16,3.63L22,28.28l1.35.94a4.89,4.89,0,0,1,1.68,2H19A4.89,4.89,0,0,1,20.65,29.22Zm-2.12,4.36v-.3A4.69,4.69,0,0,1,18.69,32h6.62a4.69,4.69,0,0,1,.16,1.24v.3Z"/></svg>