<svg id="Layer_1" data-name="Layer 1" xmlns="http://www.w3.org/2000/svg" viewBox="0 0 44 44"><defs><style>.cls-1{fill:#fff;}.cls-2{fill:#512772;}</style></defs><title>ico_health</title><circle class="cls-1" cx="22" cy="22" r="22"/><path class="cls-2" d="M27,13.21V10a.78.78,0,0,0-.77-.78h-8.5A.78.78,0,0,0,17,10v3.17a3.49,3.49,0,0,0-2.7,3.39V32.81a.78.78,0,0,0,.77.77H29a.78.78,0,0,0,.77-.77V16.6A3.49,3.49,0,0,0,27,13.21Zm-.77-.09H24.7V10h1.55Zm-6.18,0V10h1.54v3.08ZM22.39,10h1.54v3.08H22.39Zm-4.64,0H19.3v3.08H17.75Zm-2.7,22.77V16.6a2.71,2.71,0,0,1,2.7-2.71h8.5A2.71,2.71,0,0,1,29,16.6V32.81Z"/><polygon class="cls-2" points="23.19 20.26 20.81 20.26 20.81 22.16 18.91 22.16 18.91 24.54 20.81 24.54 20.81 26.44 23.19 26.44 23.19 24.54 25.09 24.54 25.09 22.16 23.19 22.16 23.19 20.26"/></svg>