<svg id="Layer_1" data-name="Layer 1" xmlns="http://www.w3.org/2000/svg" viewBox="0 0 44 44"><defs><style>.cls-1{fill:#fff;}.cls-2{fill:#512772;}</style></defs><title>ico_process</title><circle class="cls-1" cx="22" cy="22" r="22"/><path class="cls-2" d="M31.07,24.12h-.39V13.7a.77.77,0,0,0-.77-.77H14.09a.77.77,0,0,0-.77.77V24.12h-.39a3.28,3.28,0,0,0,0,6.56H31.07a3.28,3.28,0,1,0,0-6.56Zm-17-10.42h5.08v4.83a.38.38,0,0,0,.39.38h4.88a.38.38,0,0,0,.39-.38V13.7h5.08V24.12H14.09Zm17,16.21H12.93a2.51,2.51,0,0,1,0-5H31.07a2.51,2.51,0,0,1,0,5Z"/><circle class="cls-2" cx="13.7" cy="27.4" r="1.54"/><circle class="cls-2" cx="19.23" cy="27.4" r="1.54"/><circle class="cls-2" cx="24.77" cy="27.4" r="1.54"/><circle class="cls-2" cx="30.3" cy="27.4" r="1.54"/></svg>