<?xml version="1.0" encoding="UTF-8"?>
<svg width="24px" height="24px" viewBox="0 0 24 24" version="1.1" xmlns="http://www.w3.org/2000/svg" xmlns:xlink="http://www.w3.org/1999/xlink">
    <title>tab_btn_category copy</title>
    <g id="tab_btn_category-copy" stroke="none" stroke-width="1" fill="none" fill-rule="evenodd">
        <path d="M22,19.5 C22.2761424,19.5 22.5,19.7238576 22.5,20 C22.5,20.2454599 22.3231248,20.4496084 22.0898756,20.4919443 L22,20.5 L2,20.5 C1.72385763,20.5 1.5,20.2761424 1.5,20 C1.5,19.7545401 1.67687516,19.5503916 1.91012437,19.5080557 L2,19.5 L22,19.5 Z M22,11.5 C22.2761424,11.5 22.5,11.7238576 22.5,12 C22.5,12.2454599 22.3231248,12.4496084 22.0898756,12.4919443 L22,12.5 L2,12.5 C1.72385763,12.5 1.5,12.2761424 1.5,12 C1.5,11.7545401 1.67687516,11.5503916 1.91012437,11.5080557 L2,11.5 L22,11.5 Z M22,3.5 C22.2761424,3.5 22.5,3.72385763 22.5,4 C22.5,4.24545989 22.3231248,4.44960837 22.0898756,4.49194433 L22,4.5 L2,4.5 C1.72385763,4.5 1.5,4.27614237 1.5,4 C1.5,3.75454011 1.67687516,3.55039163 1.91012437,3.50805567 L2,3.5 L22,3.5 Z" id="Combined-Shape" fill="#333333" fill-rule="nonzero"></path>
    </g>
</svg>