<?xml version="1.0" encoding="UTF-8"?>
<svg width="24px" height="24px" viewBox="0 0 24 24" version="1.1" xmlns="http://www.w3.org/2000/svg" xmlns:xlink="http://www.w3.org/1999/xlink">
    <title>tab_btn_profile</title>
    <g id="tab_btn_profile" stroke="none" stroke-width="1" fill="none" fill-rule="evenodd">
        <path d="M12,1.5 C9.51471863,1.5 7.5,3.51471863 7.5,6 C7.5,8.48528137 9.51471863,10.5 12,10.5 C14.4852814,10.5 16.5,8.48528137 16.5,6 C16.5,3.51471863 14.4852814,1.5 12,1.5 Z M12,2.5 C13.9329966,2.5 15.5,4.06700338 15.5,6 C15.5,7.93299662 13.9329966,9.5 12,9.5 C10.0670034,9.5 8.5,7.93299662 8.5,6 C8.5,4.06700338 10.0670034,2.5 12,2.5 Z" id="Oval-3" fill="#333333" fill-rule="nonzero"></path>
        <path d="M12,11.5 C6.21628629,11.5 1.5,15.7688302 1.5,21.0825688 C1.5,21.8643774 2.12984417,22.5 2.90909091,22.5 L21.0909091,22.5 C21.8701558,22.5 22.5,21.8643774 22.5,21.0825688 C22.5,15.8089651 17.7482191,11.5 12,11.5 Z M12,12.5 C17.2165732,12.5 21.5,16.3842567 21.5,21.0825688 C21.5,21.3141267 21.3158164,21.5 21.0909091,21.5 L2.90909091,21.5 C2.68418356,21.5 2.5,21.3141267 2.5,21.0825688 C2.5,16.3445792 6.74756562,12.5 12,12.5 Z" id="Oval-3-Copy" fill="#333333" fill-rule="nonzero"></path>
    </g>
</svg>