<?xml version="1.0" encoding="UTF-8"?>
<svg width="24px" height="24px" viewBox="0 0 24 24" version="1.1" xmlns="http://www.w3.org/2000/svg" xmlns:xlink="http://www.w3.org/1999/xlink">
    <title>tab_btn_search_sel</title>
    <g id="tab_btn_search_sel" stroke="none" stroke-width="1" fill="none" fill-rule="evenodd">
        <path d="M10.5,0.75 C15.6086339,0.75 19.75,4.89136606 19.75,10 C19.75,12.1034753 19.047884,14.0429626 17.8652257,15.5968882 L21.3838835,19.1161165 C21.8720388,19.6042719 21.8720388,20.3957281 21.3838835,20.8838835 C20.9282718,21.3394952 20.2084514,21.3698693 19.7176119,20.9750058 L19.5583885,20.8261555 L16.0978913,17.3644621 C14.5437973,18.5475818 12.6039279,19.25 10.5,19.25 C5.39136606,19.25 1.25,15.1086339 1.25,10 C1.25,4.89136606 5.39136606,0.75 10.5,0.75 Z M10.5,3.25 C6.77207794,3.25 3.75,6.27207794 3.75,10 C3.75,13.7279221 6.77207794,16.75 10.5,16.75 C14.2279221,16.75 17.25,13.7279221 17.25,10 C17.25,6.27207794 14.2279221,3.25 10.5,3.25 Z" id="Combined-Shape" fill="#5F0080" fill-rule="nonzero"></path>
    </g>
</svg>