<?xml version="1.0" encoding="UTF-8"?>
<svg width="24px" height="24px" viewBox="0 0 24 24" version="1.1" xmlns="http://www.w3.org/2000/svg" xmlns:xlink="http://www.w3.org/1999/xlink">
    <title>tab_btn_search</title>
    <g id="tab_btn_search" stroke="none" stroke-width="1" fill="none" fill-rule="evenodd">
        <path d="M10.5,1.5 C5.80557963,1.5 2,5.30557963 2,10 C2,14.6944204 5.80557963,18.5 10.5,18.5 C15.1944204,18.5 19,14.6944204 19,10 C19,5.30557963 15.1944204,1.5 10.5,1.5 Z M10.5,2.5 C14.6421356,2.5 18,5.85786438 18,10 C18,14.1421356 14.6421356,17.5 10.5,17.5 C6.35786438,17.5 3,14.1421356 3,10 C3,5.85786438 6.35786438,2.5 10.5,2.5 Z" id="Oval" fill="#333333" fill-rule="nonzero"></path>
        <path d="M16.1464466,15.6464466 C16.320013,15.4728803 16.5894374,15.4535951 16.7843055,15.5885912 L16.8535534,15.6464466 L20.8535534,19.6464466 C21.0488155,19.8417088 21.0488155,20.1582912 20.8535534,20.3535534 C20.679987,20.5271197 20.4105626,20.5464049 20.2156945,20.4114088 L20.1464466,20.3535534 L16.1464466,16.3535534 C15.9511845,16.1582912 15.9511845,15.8417088 16.1464466,15.6464466 Z" id="Path-2" fill="#333333" fill-rule="nonzero"></path>
    </g>
</svg>