<svg width="50" height="50" viewBox="0 0 50 50" fill="none" xmlns="http://www.w3.org/2000/svg">
<path fill-rule="evenodd" clip-rule="evenodd" d="M48 25C48 37.7025 37.7025 48 25 48C12.2975 48 2 37.7025 2 25C2 12.2975 12.2975 2 25 2C37.7025 2 48 12.2975 48 25ZM50 25C50 38.8071 38.8071 50 25 50C11.1929 50 0 38.8071 0 25C0 11.1929 11.1929 0 25 0C38.8071 0 50 11.1929 50 25ZM23.4374 15.1041C23.4374 14.2412 24.137 13.5416 24.9999 13.5416C25.8629 13.5416 26.5624 14.2412 26.5624 15.1041V27.6041C26.5624 28.4671 25.8629 29.1666 24.9999 29.1666C24.137 29.1666 23.4374 28.4671 23.4374 27.6041V15.1041ZM22.9165 34.2916C22.9165 33.1871 23.8119 32.2916 24.9165 32.2916H25.0832C26.1877 32.2916 27.0832 33.1871 27.0832 34.2916V34.4583C27.0832 35.5629 26.1877 36.4583 25.0832 36.4583H24.9165C23.8119 36.4583 22.9165 35.5629 22.9165 34.4583V34.2916Z" fill="#5F0080"/>
</svg>
