<svg id="Layer_1" data-name="Layer 1" xmlns="http://www.w3.org/2000/svg" viewBox="0 0 44 44"><defs><style>.cls-1{fill:#fff;}.cls-2{fill:#512772;}</style></defs><title>ico_producer</title><circle class="cls-1" cx="22" cy="22" r="22"/><path class="cls-2" d="M30,16.42h0l0-.58h0c-.11-3-3.62-5.38-7.92-5.38s-7.81,2.4-7.92,5.38l0,.58h0c-2.84.69-4.85,1.78-4.85,3.24s1.95,2.52,4.72,3.21v3.95a6.57,6.57,0,0,0,6.57,6.56h3.08a6.57,6.57,0,0,0,6.57-6.56V22.87c2.77-.69,4.72-1.77,4.72-3.21S32.82,17.11,30,16.42Zm-8-5.19c3.82,0,7,2,7.15,4.51l-.86.34c-.56.2-1.14.38-1.73.53a19.35,19.35,0,0,1-9.14,0c-.59-.15-1.16-.33-1.72-.53l-.85-.34C15,13.23,18.17,11.23,22,11.23Zm7.33,15.59a5.79,5.79,0,0,1-5.79,5.79H20.46a5.79,5.79,0,0,1-5.79-5.79V23.05a36.85,36.85,0,0,0,7.33.7,36.85,36.85,0,0,0,7.33-.7Zm.78-4.75-.78.19A34.37,34.37,0,0,1,22,23a34.37,34.37,0,0,1-7.33-.72l-.78-.19c-2.48-.65-4-1.55-4-2.41s1.52-1.79,4.08-2.44V18l.83.36a18.21,18.21,0,0,0,2.44.77,20.26,20.26,0,0,0,9.42,0,18.21,18.21,0,0,0,2.44-.77L30,18v-.75c2.56.65,4.08,1.57,4.08,2.44S32.59,21.42,30.11,22.07Z"/></svg>