<svg xmlns="http://www.w3.org/2000/svg" width="68" height="68" viewBox="0 0 68 68">
    <g fill="none" fill-rule="evenodd">
        <g stroke="#D9D9D9" stroke-width="1.8">
            <g>
                <g>
                    <g transform="translate(-154.000000, -351.000000) translate(44.000000, 351.000000) translate(110.000000, 0.000000) translate(10.000000, 10.500000)">
                        <path d="M31.772 0c2.677 0 4.847 2.27 4.847 5.07 0 1.37-.52 2.612-1.363 3.525-.003.003-.251.004-.656.005H31.773l-.255-.001-.758-.001h-.731l-.233-.001h-1.51v-.002h-4.667l4.23-6.512C28.736.822 30.163 0 31.773 0z"/>
                        <path d="M19.772 0c2.677 0 4.847 2.27 4.847 5.07 0 1.37-.52 2.612-1.363 3.525-.003.003-.251.004-.656.005H19.773l-.255-.001-.758-.001h-.731l-.233-.001h-1.51v-.002h-4.667l4.23-6.512C16.736.822 18.163 0 19.773 0z" transform="translate(18.118620, 4.300000) scale(-1, 1) translate(-18.118620, -4.300000)"/>
                        <rect width="47.452" height="11" y="8.627" rx="1"/>
                        <path d="M3.376 19.627h40.7v26.19c0 .552-.447 1-1 1h-38.7c-.552 0-1-.448-1-1v-26.19h0zM24.122 7.593L24.122 47.814"/>
                    </g>
                </g>
            </g>
        </g>
    </g>
</svg>
