<svg xmlns="http://www.w3.org/2000/svg" width="25" height="24" viewBox="0 0 25 24">
    <g fill="none" fill-rule="evenodd">
        <g fill="#FFF">
            <g>
                <g>
                    <g>
                        <path fill-opacity="0" fill-rule="nonzero" d="M0 0H24V24H0z" transform="translate(-754 -536) translate(540 424) translate(184 102) translate(30.58 10)"/>
                        <g stroke="#979797" stroke-opacity=".05">
                            <path d="M5.6.5c1.408 0 2.683.57 3.606 1.494.923.923 1.494 2.198 1.494 3.606 0 1.217-.426 2.334-1.137 3.21l-.157.185 2.806 2.793-3.11-2.261C8.096 10.21 6.906 10.7 5.6 10.7c-1.408 0-2.683-.57-3.606-1.494C1.07 8.283.5 7.008.5 5.6s.57-2.683 1.494-3.606C2.917 1.07 4.192.5 5.6.5zm0 .6c-1.243 0-2.368.504-3.182 1.318C1.604 3.232 1.1 4.358 1.1 5.6c0 1.243.504 2.368 1.318 3.182.814.814 1.94 1.318 3.182 1.318 1.243 0 2.368-.504 3.182-1.318.814-.814 1.318-1.94 1.318-3.182 0-1.243-.504-2.368-1.318-3.182C7.968 1.604 6.842 1.1 5.6 1.1z" transform="translate(-754 -536) translate(540 424) translate(184 102) translate(30.58 10) translate(5.6 5.6)"/>
                        </g>
                    </g>
                </g>
            </g>
        </g>
    </g>
</svg>
