<?xml version="1.0" encoding="UTF-8"?>
<svg width="32px" height="32px" viewBox="0 0 32 32" version="1.1" xmlns="http://www.w3.org/2000/svg" xmlns:xlink="http://www.w3.org/1999/xlink">
    <title>ic_rank_save</title>
    <g id="ic_rank_save" stroke="none" stroke-width="1" fill="none" fill-rule="evenodd">
        <circle id="Oval-5-Copy-21" stroke="#5F0080" fill="#FFFFFF" cx="16" cy="16" r="15.5"></circle>
        <g id="Group-2" transform="translate(9.500000, 11.331644)" stroke="#5F0080" stroke-linecap="round" stroke-linejoin="round">
            <path d="M0.657452749,1.77635684e-15 L3.54369491,9.43216392 C3.62449616,9.69622029 3.9040585,9.84477792 4.16811488,9.76397667 C4.33526777,9.71282789 4.46357249,9.57809875 4.50649999,9.40864812 L6.40913017,1.89826582 C6.476944,1.63057963 6.74892051,1.46855107 7.0166067,1.53636491 C7.19386536,1.58127043 7.33247226,1.71935782 7.3780431,1.8964466 L9.31585004,9.42678446 C9.38466861,9.69421411 9.65725164,9.8552202 9.92468129,9.78640164 C10.0931118,9.74305886 10.2269197,9.61530744 10.278012,9.44906361 L13.1820242,1.77635684e-15 L13.1820242,1.77635684e-15" id="Path-2"></path>
            <line x1="-1.00613962e-16" y1="4.83468601" x2="14" y2="4.77754055" id="Path-5"></line>
        </g>
    </g>
</svg>