<svg xmlns="http://www.w3.org/2000/svg" width="32" height="32" viewBox="0 0 32 32">
    <g fill="none" fill-rule="evenodd">
        <g stroke="#5F0080">
            <g>
                <g transform="translate(-124 -243) translate(0 88) translate(124 155)">
                    <circle cx="16" cy="16" r="15.75" fill="#FFF" stroke-opacity=".2" stroke-width=".5"/>
                    <g stroke-linecap="round" stroke-linejoin="round">
                        <path d="M.657 0l2.887 9.432c.08.264.36.413.624.332.167-.051.296-.186.338-.355l1.903-7.51c.068-.268.34-.43.608-.363.177.045.315.183.361.36l1.938 7.53c.069.268.341.43.609.36.168-.043.302-.17.353-.337L13.182 0h0M0 4.835L14 4.778" transform="translate(9.5 11.332)"/>
                    </g>
                </g>
            </g>
        </g>
    </g>
</svg>
