<svg width="68" height="68" viewBox="0 0 68 68" xmlns="http://www.w3.org/2000/svg">
    <g transform="translate(10 10.5)" stroke="#D9D9D9" stroke-width="1.8" fill="none" fill-rule="evenodd">
        <path d="M31.772 0c2.677 0 4.847 2.27 4.847 5.07 0 1.37-.52 2.612-1.363 3.525-.003.003-.251.004-.656.005H31.773l-.255-.001-.758-.001h-.731l-.233-.001h-1.51v-.002h-4.667l4.23-6.512C28.736.822 30.163 0 31.773 0z"/>
        <path d="M16.465 0c-2.677 0-4.846 2.27-4.846 5.07 0 1.37.519 2.612 1.363 3.525.002.003.25.004.655.005H16.465l.254-.001.759-.001h.73l.233-.001h1.51v-.002h4.668l-4.232-6.512C19.502.822 18.075 0 16.465 0z"/>
        <rect y="8.627" width="47.452" height="11" rx="1"/>
        <path d="M3.376 19.627h40.7v26.19a1 1 0 0 1-1 1h-38.7a1 1 0 0 1-1-1v-26.19zM24.122 7.593v40.221"/>
    </g>
</svg>
