<svg xmlns="http://www.w3.org/2000/svg" width="32" height="32" viewBox="0 0 32 32">
    <g fill="none" fill-rule="evenodd">
        <g stroke="#5F0080">
            <g>
                <g>
                    <g>
                        <g transform="translate(-113 -721) translate(0 400) translate(30 135) translate(83 98) translate(0 88)">
                            <circle cx="16" cy="16" r="15.75" fill="#FFF" stroke-opacity=".2" stroke-width=".5"/>
                            <g stroke-linecap="round" stroke-linejoin="round">
                                <path d="M13 7L13 14 1 14 1 7M0 3.5H14V7H0zM7 14L7 3.5M7 3.5H3.85c-.966 0-1.75-.784-1.75-1.75S2.884 0 3.85 0C6.3 0 7 3.5 7 3.5zM7 3.5h3.15c.966 0 1.75-.784 1.75-1.75S11.116 0 10.15 0C7.7 0 7 3.5 7 3.5z" transform="translate(9 8.5)"/>
                            </g>
                        </g>
                    </g>
                </g>
            </g>
        </g>
    </g>
</svg>
