<?xml version="1.0" encoding="UTF-8"?>
<svg width="17px" height="12px" viewBox="0 0 17 12" version="1.1" xmlns="http://www.w3.org/2000/svg" xmlns:xlink="http://www.w3.org/1999/xlink">
    <title>rank_bubble_tail</title>
    <g id="210325" stroke="none" stroke-width="1" fill="none" fill-rule="evenodd">
        <g id="01_등급별혜택_웰컴" transform="translate(-57.000000, -434.000000)">
            <rect fill="#F4F4F4" x="0" y="0" width="375" height="1288"></rect>
            <g id="달성-금액" transform="translate(0.000000, 364.000000)">
                <polygon id="Rectangle-2" fill="#FFFFFF" points="0 0 375 0 375 357 0 357"></polygon>
                <path d="M65.6038673,70.8394541 L72.4300523,81.498999 L341,81.5 C341.966498,81.5 342.841498,81.8917508 343.474874,82.5251263 C344.108249,83.1585017 344.5,84.0335017 344.5,85 L344.5,85 L344.5,111 C344.5,111.966498 344.108249,112.841498 343.474874,113.474874 C342.841498,114.108249 341.966498,114.5 341,114.5 L341,114.5 L34,114.5 C33.0335017,114.5 32.1585017,114.108249 31.5251263,113.474874 C30.8917508,112.841498 30.5,111.966498 30.5,111 L30.5,111 L30.5,85 C30.5,84.0335017 30.8917508,83.1585017 31.5251263,82.5251263 C32.1585017,81.8917508 33.0335017,81.5 34.0000206,81.5 L34.0000206,81.5 L58.569112,81.4989886 L65.0264494,71.0979596 C65.2441736,70.9379287 65.4348472,70.8493482 65.6038673,70.8394541 L65.6038673,70.8394541 Z" id="Combined-Shape-Copy-2" stroke="#EFE9F3" fill="#FBF8FC"></path>
            </g>
        </g>
    </g>
</svg>