<svg xmlns="http://www.w3.org/2000/svg" width="61" height="60" viewBox="0 0 61 60">
    <g fill="none" fill-rule="evenodd">
        <g>
            <g>
                <g>
                    <path d="M0 0H60V60H0z" transform="translate(-157.000000, -124.000000) translate(20.000000, 124.000000) translate(137.881380, 0.000000)"/>
                    <g stroke="#333" stroke-width="1.8" transform="translate(-157.000000, -124.000000) translate(20.000000, 124.000000) translate(137.881380, 0.000000) translate(6.000000, 7.000000)">
                        <path d="M32.168 0c2.486 0 4.502 2.108 4.502 4.71 0 1.271-.482 2.426-1.266 3.273-.002.002-.103.003-.28.004h-.247l-.148.001h-.252 0l-.06.003h-10.98l5.265-6.286c.053-.067.108-.133.165-.197l.06-.072C29.748.552 30.897 0 32.168 0z"/>
                        <path d="M20.06 0c2.486 0 4.502 2.108 4.502 4.71 0 1.271-.483 2.426-1.266 3.273-.002.002-.103.003-.28.004h-.247l-.148.001h-.252 0l-.06.003H11.33l5.265-6.286c.053-.067.108-.133.165-.197l.06-.072C17.64.552 18.79 0 20.06 0z" transform="translate(17.945429, 3.995585) scale(-1, 1) translate(-17.945429, -3.995585)"/>
                        <rect width="48" height="11.127" y="8.018" rx="1"/>
                        <path d="M24.004 6.973L24.004 47.34M3.5 19.145V45.65c0 .552.448 1 1 1h27.668M44.5 19.5L44.5 30.738"/>
                    </g>
                    <g stroke="#5F0080" stroke-width="1.8" transform="translate(-157.000000, -124.000000) translate(20.000000, 124.000000) translate(137.881380, 0.000000) translate(36.325065, 36.923700)">
                        <circle cx="11.464" cy="11.464" r="10.564"/>
                        <path stroke-linecap="round" stroke-linejoin="round" d="M14.291 5.716L14.24 14.172 9.706 14.192" transform="translate(11.998566, 9.953840) rotate(-315.000000) translate(-11.998566, -9.953840)"/>
                    </g>
                </g>
            </g>
        </g>
    </g>
</svg>
