<svg width="198" height="117" viewBox="0 0 198 117" fill="none" xmlns="http://www.w3.org/2000/svg">
<path fill-rule="evenodd" clip-rule="evenodd" d="M5 10C5 4.47715 9.47715 0 15 0H166C171.523 0 176 4.47715 176 10V69C172.134 69 169 72.134 169 76C169 79.866 172.134 82.9999 176 82.9999V100C176 105.523 171.523 110 166 110H15C9.47716 110 5 105.523 5 100V82.9291C8.39229 82.4438 11 79.5264 11 76C11 72.4735 8.39229 69.5561 5 69.0709V10Z" fill="#BD76FF"/>
<mask id="mask0_118_4347" style="mask-type:alpha" maskUnits="userSpaceOnUse" x="5" y="0" width="171" height="110">
<path fill-rule="evenodd" clip-rule="evenodd" d="M5 10C5 4.47715 9.47715 0 15 0H166C171.523 0 176 4.47715 176 10V71C172.134 71 169 74.134 169 78C169 81.866 172.134 84.9999 176 84.9999V100C176 105.523 171.523 110 166 110H15C9.47716 110 5 105.523 5 100V84.9291C8.39229 84.4438 11 81.5264 11 78C11 74.4735 8.39229 71.5561 5 71.0709V10Z" fill="#BD76FF"/>
</mask>
<g mask="url(#mask0_118_4347)">
<g opacity="0.2" filter="url(#filter0_f_118_4347)">
<rect x="150" y="74" width="44" height="44" rx="22" fill="#222222"/>
</g>
</g>
<line opacity="0.15" x1="25" y1="77.5" x2="156" y2="77.5" stroke="white"/>
<path d="M27.444 40.572L22.692 42.048L22.008 39.744L28.164 37.62H30.252V63H27.444V40.572ZM45.3863 60.84C46.5623 60.84 47.6183 60.564 48.5543 60.012C49.5143 59.436 50.3183 58.68 50.9663 57.744C51.6383 56.784 52.1423 55.68 52.4783 54.432C52.8383 53.16 53.0183 51.84 53.0183 50.472V50.4C53.0183 49.032 52.8383 47.724 52.4783 46.476C52.1183 45.204 51.6023 44.088 50.9303 43.128C50.2583 42.168 49.4423 41.4 48.4823 40.824C47.5463 40.248 46.4903 39.96 45.3143 39.96C44.1383 39.96 43.0703 40.248 42.1103 40.824C41.1743 41.376 40.3703 42.132 39.6983 43.092C39.0503 44.028 38.5463 45.12 38.1863 46.368C37.8263 47.616 37.6463 48.936 37.6463 50.328V50.4C37.6463 51.768 37.8263 53.088 38.1863 54.36C38.5463 55.608 39.0623 56.712 39.7343 57.672C40.4063 58.632 41.2223 59.4 42.1823 59.976C43.1423 60.552 44.2103 60.84 45.3863 60.84ZM45.3143 63.432C43.6823 63.432 42.2063 63.096 40.8863 62.424C39.5903 61.728 38.4743 60.792 37.5383 59.616C36.6263 58.416 35.9183 57.036 35.4143 55.476C34.9343 53.916 34.6943 52.248 34.6943 50.472V50.4C34.6943 48.648 34.9463 46.98 35.4503 45.396C35.9543 43.812 36.6743 42.432 37.6103 41.256C38.5463 40.056 39.6623 39.108 40.9583 38.412C42.2783 37.716 43.7543 37.368 45.3863 37.368C46.9943 37.368 48.4463 37.716 49.7423 38.412C51.0623 39.084 52.1783 40.02 53.0903 41.22C54.0263 42.396 54.7343 43.776 55.2143 45.36C55.7183 46.92 55.9703 48.576 55.9703 50.328V50.4C55.9703 52.176 55.7183 53.856 55.2143 55.44C54.7103 57 53.9903 58.38 53.0543 59.58C52.1423 60.756 51.0263 61.692 49.7063 62.388C48.3863 63.084 46.9223 63.432 45.3143 63.432ZM58.4127 66.132C59.3247 65.796 59.9727 65.376 60.3567 64.872C60.7407 64.392 60.8967 63.768 60.8247 63H59.5287V59.22H62.8407V62.46C62.8407 63.924 62.5167 65.028 61.8687 65.772C61.2207 66.54 60.2127 67.08 58.8447 67.392L58.4127 66.132ZM77.0649 60.84C78.2409 60.84 79.2969 60.564 80.2329 60.012C81.1929 59.436 81.9969 58.68 82.6449 57.744C83.3169 56.784 83.8209 55.68 84.1569 54.432C84.5169 53.16 84.6969 51.84 84.6969 50.472V50.4C84.6969 49.032 84.5169 47.724 84.1569 46.476C83.7969 45.204 83.2809 44.088 82.6089 43.128C81.9369 42.168 81.1209 41.4 80.1609 40.824C79.2249 40.248 78.1689 39.96 76.9929 39.96C75.8169 39.96 74.7489 40.248 73.7889 40.824C72.8529 41.376 72.0489 42.132 71.3769 43.092C70.7289 44.028 70.2249 45.12 69.8649 46.368C69.5049 47.616 69.3249 48.936 69.3249 50.328V50.4C69.3249 51.768 69.5049 53.088 69.8649 54.36C70.2249 55.608 70.7409 56.712 71.4129 57.672C72.0849 58.632 72.9009 59.4 73.8609 59.976C74.8209 60.552 75.8889 60.84 77.0649 60.84ZM76.9929 63.432C75.3609 63.432 73.8849 63.096 72.5649 62.424C71.2689 61.728 70.1529 60.792 69.2169 59.616C68.3049 58.416 67.5969 57.036 67.0929 55.476C66.6129 53.916 66.3729 52.248 66.3729 50.472V50.4C66.3729 48.648 66.6249 46.98 67.1289 45.396C67.6329 43.812 68.3529 42.432 69.2889 41.256C70.2249 40.056 71.3409 39.108 72.6369 38.412C73.9569 37.716 75.4329 37.368 77.0649 37.368C78.6729 37.368 80.1249 37.716 81.4209 38.412C82.7409 39.084 83.8569 40.02 84.7689 41.22C85.7049 42.396 86.4129 43.776 86.8929 45.36C87.3969 46.92 87.6489 48.576 87.6489 50.328V50.4C87.6489 52.176 87.3969 53.856 86.8929 55.44C86.3889 57 85.6689 58.38 84.7329 59.58C83.8209 60.756 82.7049 61.692 81.3849 62.388C80.0649 63.084 78.6009 63.432 76.9929 63.432ZM101.359 60.84C102.535 60.84 103.591 60.564 104.527 60.012C105.487 59.436 106.291 58.68 106.939 57.744C107.611 56.784 108.115 55.68 108.451 54.432C108.811 53.16 108.991 51.84 108.991 50.472V50.4C108.991 49.032 108.811 47.724 108.451 46.476C108.091 45.204 107.575 44.088 106.903 43.128C106.231 42.168 105.415 41.4 104.455 40.824C103.519 40.248 102.463 39.96 101.287 39.96C100.111 39.96 99.0433 40.248 98.0833 40.824C97.1473 41.376 96.3433 42.132 95.6713 43.092C95.0233 44.028 94.5193 45.12 94.1593 46.368C93.7993 47.616 93.6193 48.936 93.6193 50.328V50.4C93.6193 51.768 93.7993 53.088 94.1593 54.36C94.5193 55.608 95.0353 56.712 95.7073 57.672C96.3793 58.632 97.1953 59.4 98.1553 59.976C99.1153 60.552 100.183 60.84 101.359 60.84ZM101.287 63.432C99.6553 63.432 98.1793 63.096 96.8593 62.424C95.5633 61.728 94.4473 60.792 93.5113 59.616C92.5993 58.416 91.8913 57.036 91.3873 55.476C90.9073 53.916 90.6673 52.248 90.6673 50.472V50.4C90.6673 48.648 90.9193 46.98 91.4233 45.396C91.9273 43.812 92.6473 42.432 93.5833 41.256C94.5193 40.056 95.6353 39.108 96.9313 38.412C98.2513 37.716 99.7273 37.368 101.359 37.368C102.967 37.368 104.419 37.716 105.715 38.412C107.035 39.084 108.151 40.02 109.063 41.22C109.999 42.396 110.707 43.776 111.187 45.36C111.691 46.92 111.943 48.576 111.943 50.328V50.4C111.943 52.176 111.691 53.856 111.187 55.44C110.683 57 109.963 58.38 109.027 59.58C108.115 60.756 106.999 61.692 105.679 62.388C104.359 63.084 102.895 63.432 101.287 63.432ZM125.654 60.84C126.83 60.84 127.886 60.564 128.822 60.012C129.782 59.436 130.586 58.68 131.234 57.744C131.906 56.784 132.41 55.68 132.746 54.432C133.106 53.16 133.286 51.84 133.286 50.472V50.4C133.286 49.032 133.106 47.724 132.746 46.476C132.386 45.204 131.87 44.088 131.198 43.128C130.526 42.168 129.71 41.4 128.75 40.824C127.814 40.248 126.758 39.96 125.582 39.96C124.406 39.96 123.338 40.248 122.378 40.824C121.442 41.376 120.638 42.132 119.966 43.092C119.318 44.028 118.814 45.12 118.454 46.368C118.094 47.616 117.914 48.936 117.914 50.328V50.4C117.914 51.768 118.094 53.088 118.454 54.36C118.814 55.608 119.33 56.712 120.002 57.672C120.674 58.632 121.49 59.4 122.45 59.976C123.41 60.552 124.478 60.84 125.654 60.84ZM125.582 63.432C123.95 63.432 122.474 63.096 121.154 62.424C119.858 61.728 118.742 60.792 117.806 59.616C116.894 58.416 116.186 57.036 115.682 55.476C115.202 53.916 114.962 52.248 114.962 50.472V50.4C114.962 48.648 115.214 46.98 115.718 45.396C116.222 43.812 116.942 42.432 117.878 41.256C118.814 40.056 119.93 39.108 121.226 38.412C122.546 37.716 124.022 37.368 125.654 37.368C127.262 37.368 128.714 37.716 130.01 38.412C131.33 39.084 132.446 40.02 133.358 41.22C134.294 42.396 135.002 43.776 135.482 45.36C135.986 46.92 136.238 48.576 136.238 50.328V50.4C136.238 52.176 135.986 53.856 135.482 55.44C134.978 57 134.258 58.38 133.322 59.58C132.41 60.756 131.294 61.692 129.974 62.388C128.654 63.084 127.19 63.432 125.582 63.432Z" fill="#FAFAFA"/>
<path d="M140.861 50.8H142.237L145.437 60.128L148.509 50.768H149.549L152.621 60.128L155.821 50.8H157.149L153.149 62.08H152.077L149.005 52.992L145.917 62.08H144.861L140.861 50.8Z" fill="#FAFAFA"/>
<rect x="140" y="55" width="3" height="1.2" fill="#FAFAFA"/>
<rect x="155" y="55" width="3" height="1.2" fill="#FAFAFA"/>
<path opacity="0.8" d="M24.5352 16.3594C24.5352 17.6602 25.3789 18.8789 27.0312 19.3828L26.4102 20.4023C25.2207 20.0332 24.377 19.2773 23.9141 18.3164C23.4453 19.4297 22.5488 20.3145 21.2773 20.7422L20.6211 19.7109C22.332 19.1484 23.2227 17.7773 23.2227 16.3711V16.2422H20.9844V15.1875H26.7383V16.2422H24.5352V16.3594ZM29.0938 14.4492V16.9922H30.5703V18.0586H29.0938V20.7656H27.793V14.4492H29.0938ZM25.6484 21C27.8398 21 29.1875 21.7383 29.1992 23.0039C29.1875 24.2812 27.8398 25.0312 25.6484 25.0312C23.4336 25.0312 22.0625 24.2812 22.0625 23.0039C22.0625 21.7383 23.4336 21 25.6484 21ZM25.6484 22.0195C24.1953 22.0195 23.3633 22.3594 23.3633 23.0039C23.3633 23.6602 24.1953 24.0117 25.6484 24.0117C27.1016 24.0117 27.9102 23.6602 27.9102 23.0039C27.9102 22.3594 27.1016 22.0195 25.6484 22.0195ZM39.4062 14.4492V18.4805H41.0352V19.582H39.4062V25.043H38.1055V14.4492H39.4062ZM32.7734 15.3164V17.9648H35.2695V15.3164H36.5703V22.5586H31.4844V15.3164H32.7734ZM32.7734 21.4922H35.2695V18.9844H32.7734V21.4922ZM49.9531 15.0938V16.043C49.9531 17.0332 49.9531 18.1172 49.6719 19.6172H51.1367V20.6719H46.9297V25.0547H45.6172V20.6719H41.4805V19.6172H48.3477C48.6406 18.1758 48.6523 17.0977 48.6523 16.1484H42.6172V15.0938H49.9531ZM60.6875 14.4492V25.043H59.3984V14.4492H60.6875ZM53.75 15.4805V21.2695C55.2383 21.2461 56.8203 21.1113 58.4492 20.7891L58.6133 21.8789C56.75 22.2656 55.0156 22.3828 53.375 22.3828H52.4609V15.4805H53.75ZM70.7422 15.0703V16.0312C70.7422 17.1328 70.7422 18.3574 70.3906 20.0742H71.8789V21.1289H67.707V25.0195H66.3945V21.1289H62.2227V20.0742H69.1016C69.2422 19.4473 69.3359 18.8789 69.3945 18.3633L63.2188 18.668L63.0547 17.5547L69.4766 17.3672C69.4941 16.9219 69.4941 16.5059 69.5 16.1133H63.3828V15.0703H70.7422ZM81.3594 14.8711V15.9258H79.9062V17.9531H81.3008V18.9727H78.0664V20.0625H82.25V21.0938H72.5938V20.0625H76.7539V18.9727H73.5195V17.9531H74.9141V15.9258H73.4609V14.8711H81.3594ZM81.1602 23.7773V24.832H73.7891V21.8555H75.0898V23.7773H81.1602ZM76.2148 17.9531H78.5938V15.9258H76.2148V17.9531Z" fill="white"/>
<path opacity="0.5" d="M68.1022 97.144C67.4942 97.144 66.9342 97.032 66.4222 96.808C65.9102 96.584 65.4662 96.28 65.0902 95.896C64.7142 95.504 64.4182 95.044 64.2022 94.516C63.9942 93.988 63.8902 93.424 63.8902 92.824V92.8C63.8902 92.208 63.9942 91.648 64.2022 91.12C64.4182 90.592 64.7142 90.132 65.0902 89.74C65.4662 89.34 65.9142 89.028 66.4342 88.804C66.9542 88.572 67.5222 88.456 68.1382 88.456C68.5222 88.456 68.8662 88.488 69.1702 88.552C69.4822 88.616 69.7702 88.708 70.0342 88.828C70.2982 88.94 70.5422 89.08 70.7662 89.248C70.9902 89.408 71.2062 89.588 71.4142 89.788L70.7662 90.484C70.4062 90.148 70.0182 89.872 69.6022 89.656C69.1942 89.44 68.7022 89.332 68.1262 89.332C67.6622 89.332 67.2302 89.42 66.8302 89.596C66.4382 89.772 66.0942 90.016 65.7982 90.328C65.5102 90.64 65.2822 91.008 65.1142 91.432C64.9542 91.848 64.8742 92.296 64.8742 92.776V92.8C64.8742 93.288 64.9542 93.744 65.1142 94.168C65.2822 94.584 65.5102 94.948 65.7982 95.26C66.0942 95.572 66.4382 95.82 66.8302 96.004C67.2302 96.18 67.6622 96.268 68.1262 96.268C68.7022 96.268 69.1982 96.164 69.6142 95.956C70.0302 95.74 70.4382 95.44 70.8382 95.056L71.4622 95.668C71.2462 95.892 71.0182 96.096 70.7782 96.28C70.5462 96.456 70.2942 96.608 70.0222 96.736C69.7502 96.864 69.4582 96.964 69.1462 97.036C68.8342 97.108 68.4862 97.144 68.1022 97.144ZM77.0456 96.268C77.5256 96.268 77.9656 96.18 78.3656 96.004C78.7736 95.82 79.1216 95.572 79.4096 95.26C79.6976 94.948 79.9216 94.584 80.0816 94.168C80.2496 93.752 80.3336 93.304 80.3336 92.824V92.8C80.3336 92.32 80.2496 91.872 80.0816 91.456C79.9216 91.032 79.6936 90.664 79.3976 90.352C79.1016 90.04 78.7496 89.792 78.3416 89.608C77.9416 89.424 77.5016 89.332 77.0216 89.332C76.5416 89.332 76.0976 89.424 75.6896 89.608C75.2896 89.784 74.9456 90.028 74.6576 90.34C74.3696 90.652 74.1416 91.016 73.9736 91.432C73.8136 91.848 73.7336 92.296 73.7336 92.776V92.8C73.7336 93.28 73.8136 93.732 73.9736 94.156C74.1416 94.572 74.3736 94.936 74.6696 95.248C74.9656 95.56 75.3136 95.808 75.7136 95.992C76.1216 96.176 76.5656 96.268 77.0456 96.268ZM77.0216 97.144C76.3816 97.144 75.7976 97.028 75.2696 96.796C74.7496 96.564 74.3016 96.252 73.9256 95.86C73.5496 95.46 73.2576 95 73.0496 94.48C72.8496 93.952 72.7496 93.4 72.7496 92.824V92.8C72.7496 92.224 72.8536 91.672 73.0616 91.144C73.2696 90.616 73.5616 90.156 73.9376 89.764C74.3136 89.364 74.7656 89.048 75.2936 88.816C75.8216 88.576 76.4056 88.456 77.0456 88.456C77.6856 88.456 78.2656 88.572 78.7856 88.804C79.3136 89.036 79.7656 89.352 80.1416 89.752C80.5176 90.144 80.8056 90.604 81.0056 91.132C81.2136 91.652 81.3176 92.2 81.3176 92.776C81.3256 92.784 81.3256 92.792 81.3176 92.8C81.3176 93.376 81.2136 93.928 81.0056 94.456C80.7976 94.984 80.5056 95.448 80.1296 95.848C79.7536 96.24 79.3016 96.556 78.7736 96.796C78.2456 97.028 77.6616 97.144 77.0216 97.144ZM86.6769 97.132C86.1569 97.132 85.6809 97.056 85.2489 96.904C84.8249 96.744 84.4569 96.512 84.1449 96.208C83.8409 95.896 83.6049 95.512 83.4369 95.056C83.2689 94.6 83.1849 94.076 83.1849 93.484V88.6H84.1329V93.424C84.1329 94.336 84.3569 95.036 84.8049 95.524C85.2609 96.012 85.8929 96.256 86.7009 96.256C87.4769 96.256 88.0929 96.024 88.5489 95.56C89.0049 95.096 89.2329 94.404 89.2329 93.484V88.6H90.1809V93.412C90.1809 94.028 90.0969 94.568 89.9289 95.032C89.7609 95.496 89.5209 95.884 89.2089 96.196C88.9049 96.508 88.5369 96.744 88.1049 96.904C87.6809 97.056 87.2049 97.132 86.6769 97.132ZM95.4464 93.172C95.7904 93.172 96.1024 93.128 96.3824 93.04C96.6704 92.952 96.9144 92.828 97.1144 92.668C97.3224 92.5 97.4784 92.304 97.5824 92.08C97.6944 91.856 97.7504 91.604 97.7504 91.324V91.3C97.7504 90.7 97.5424 90.248 97.1264 89.944C96.7184 89.632 96.1744 89.476 95.4944 89.476H93.3704V93.172H95.4464ZM92.4224 88.6H95.5664C96.0384 88.6 96.4664 88.664 96.8504 88.792C97.2424 88.912 97.5744 89.088 97.8464 89.32C98.1264 89.544 98.3384 89.82 98.4824 90.148C98.6344 90.476 98.7104 90.848 98.7104 91.264V91.288C98.7104 91.744 98.6224 92.144 98.4464 92.488C98.2704 92.824 98.0304 93.108 97.7264 93.34C97.4304 93.572 97.0824 93.748 96.6824 93.868C96.2824 93.98 95.8584 94.036 95.4104 94.036H93.3704V97H92.4224V88.6ZM104.362 96.268C104.842 96.268 105.282 96.18 105.682 96.004C106.09 95.82 106.438 95.572 106.726 95.26C107.014 94.948 107.238 94.584 107.398 94.168C107.566 93.752 107.65 93.304 107.65 92.824V92.8C107.65 92.32 107.566 91.872 107.398 91.456C107.238 91.032 107.01 90.664 106.714 90.352C106.418 90.04 106.066 89.792 105.658 89.608C105.258 89.424 104.818 89.332 104.338 89.332C103.858 89.332 103.414 89.424 103.006 89.608C102.606 89.784 102.262 90.028 101.974 90.34C101.686 90.652 101.458 91.016 101.29 91.432C101.13 91.848 101.05 92.296 101.05 92.776V92.8C101.05 93.28 101.13 93.732 101.29 94.156C101.458 94.572 101.69 94.936 101.986 95.248C102.282 95.56 102.63 95.808 103.03 95.992C103.438 96.176 103.882 96.268 104.362 96.268ZM104.338 97.144C103.698 97.144 103.114 97.028 102.586 96.796C102.066 96.564 101.618 96.252 101.242 95.86C100.866 95.46 100.574 95 100.366 94.48C100.166 93.952 100.066 93.4 100.066 92.824V92.8C100.066 92.224 100.17 91.672 100.378 91.144C100.586 90.616 100.878 90.156 101.254 89.764C101.63 89.364 102.082 89.048 102.61 88.816C103.138 88.576 103.722 88.456 104.362 88.456C105.002 88.456 105.582 88.572 106.102 88.804C106.63 89.036 107.082 89.352 107.458 89.752C107.834 90.144 108.122 90.604 108.322 91.132C108.53 91.652 108.634 92.2 108.634 92.776C108.642 92.784 108.642 92.792 108.634 92.8C108.634 93.376 108.53 93.928 108.322 94.456C108.114 94.984 107.822 95.448 107.446 95.848C107.07 96.24 106.618 96.556 106.09 96.796C105.562 97.028 104.978 97.144 104.338 97.144ZM110.633 88.6H111.521L116.813 95.332V88.6H117.737V97H116.981L111.557 90.112V97H110.633V88.6Z" fill="white"/>
<rect x="154" y="73" width="44" height="44" rx="22" fill="#222222"/>
<path d="M170.5 92.6667L175.833 98L181.166 92.6667" stroke="white" stroke-width="1.5" stroke-linecap="round" stroke-linejoin="round"/>
<path d="M175.833 96.6666V86" stroke="white" stroke-width="1.5" stroke-linecap="round" stroke-linejoin="round"/>
<path d="M183 103H169" stroke="white" stroke-width="1.5" stroke-linecap="round" stroke-linejoin="round"/>
<defs>
<filter id="filter0_f_118_4347" x="145" y="69" width="54" height="54" filterUnits="userSpaceOnUse" color-interpolation-filters="sRGB">
<feFlood flood-opacity="0" result="BackgroundImageFix"/>
<feBlend mode="normal" in="SourceGraphic" in2="BackgroundImageFix" result="shape"/>
<feGaussianBlur stdDeviation="2.5" result="effect1_foregroundBlur_118_4347"/>
</filter>
</defs>
</svg>
