<?xml version="1.0" encoding="UTF-8"?>
<svg width="24px" height="24px" viewBox="0 0 24 24" version="1.1" xmlns="http://www.w3.org/2000/svg" xmlns:xlink="http://www.w3.org/1999/xlink">
    <title>tab_btn_home_sel</title>
    <g id="tab_btn_home_sel" stroke="none" stroke-width="1" fill="none" fill-rule="evenodd">
        <path d="M10,15.227 L14,15.227 L14,22 C14,22.2761424 14.2238576,22.5 14.5,22.5 L20.6363636,22.5 L20.7914305,22.4931938 C21.7673079,22.4005159 22.5,21.5989066 22.5,20.6363636 L22.5,10.6363636 L22.492891,10.4787634 C22.4436984,9.97104678 22.2092629,9.52450159 21.8367984,9.21084731 L13.2004348,1.93812004 L13.0578956,1.82929135 C12.3689179,1.35374095 11.4433267,1.39600512 10.7995652,1.93812004 L2.16320156,9.21084731 L2.04723049,9.31780099 C1.6905591,9.68246738 1.5,10.1494255 1.5,10.6363636 L1.5,20.6363636 L1.50680623,20.7914305 C1.59948405,21.7673079 2.40109345,22.5 3.36363636,22.5 L9.5,22.5 C9.77614237,22.5 10,22.2761424 10,22 L10,15.227 Z" id="Path" fill="#5F0080" fill-rule="nonzero"></path>
    </g>
</svg>