<?xml version="1.0" encoding="UTF-8"?>
<svg width="24px" height="24px" viewBox="0 0 24 24" version="1.1" xmlns="http://www.w3.org/2000/svg" xmlns:xlink="http://www.w3.org/1999/xlink">
    <title>tab_btn_home</title>
    <g id="tab_btn_home" stroke="none" stroke-width="1" fill="none" fill-rule="evenodd">
        <path d="M10,15.227 L14,15.227 L14,22 C14,22.2761424 14.2238576,22.5 14.5,22.5 L20.6363636,22.5 L20.7914305,22.4931938 C21.7673079,22.4005159 22.5,21.5989066 22.5,20.6363636 L22.5,10.6363636 L22.492891,10.4787634 C22.4436984,9.97104678 22.2092629,9.52450159 21.8367984,9.21084731 L13.2004348,1.93812004 L13.0578956,1.82929135 C12.3689179,1.35374095 11.4433267,1.39600512 10.7995652,1.93812004 L2.16320156,9.21084731 L2.04723049,9.31780099 C1.6905591,9.68246738 1.5,10.1494255 1.5,10.6363636 L1.5,20.6363636 L1.50680623,20.7914305 C1.59948405,21.7673079 2.40109345,22.5 3.36363636,22.5 L9.5,22.5 C9.77614237,22.5 10,22.2761424 10,22 L10,15.227 Z M12.486,2.65 L12.574934,2.7179778 L21.1926627,9.97575851 C21.3652626,10.1211058 21.4739143,10.328062 21.4958751,10.5519855 L21.5005967,10.6607835 L21.5,20.6363636 C21.5,21.0822765 21.1602647,21.4539674 20.7201296,21.4960249 L20.6126241,21.5005639 L15,21.5 L15,15.1818182 C15,14.7184679 14.6678268,14.3245607 14.2164534,14.242634 L14.0900913,14.2292691 L9.95454545,14.2272727 C9.49119519,14.2272727 9.09728797,14.5594459 9.01536131,15.0108194 L9.00199642,15.1371815 L9,21.5 L3.36363636,21.5 C2.91772351,21.5 2.54603261,21.1602647 2.50397513,20.7201296 L2.49943612,20.6126241 L2.5,10.6363636 C2.5,10.4107166 2.58831665,10.1942999 2.74545253,10.0332647 L2.82563199,9.9595724 L11.4437009,2.70303124 C11.7088244,2.47976936 12.0773391,2.43948055 12.3798342,2.58780891 L12.486,2.65 Z" id="Path" fill="#333333" fill-rule="nonzero"></path>
    </g>
</svg>