<?xml version="1.0" encoding="UTF-8"?>
<svg width="24px" height="24px" viewBox="0 0 24 24" version="1.1" xmlns="http://www.w3.org/2000/svg" xmlns:xlink="http://www.w3.org/1999/xlink">
    <title>tab_btn_category_sel copy</title>
    <g id="tab_btn_category_sel-copy" stroke="none" stroke-width="1" fill="none" fill-rule="evenodd">
        <path d="M22,18.75 C22.6903559,18.75 23.25,19.3096441 23.25,20 C23.25,20.6472087 22.7581253,21.1795339 22.1278052,21.2435464 L22,21.25 L2,21.25 C1.30964406,21.25 0.75,20.6903559 0.75,20 C0.75,19.3527913 1.24187466,18.8204661 1.87219476,18.7564536 L2,18.75 L22,18.75 Z M22,10.75 C22.6903559,10.75 23.25,11.3096441 23.25,12 C23.25,12.6472087 22.7581253,13.1795339 22.1278052,13.2435464 L22,13.25 L2,13.25 C1.30964406,13.25 0.75,12.6903559 0.75,12 C0.75,11.3527913 1.24187466,10.8204661 1.87219476,10.7564536 L2,10.75 L22,10.75 Z M22,2.75 C22.6903559,2.75 23.25,3.30964406 23.25,4 C23.25,4.64720869 22.7581253,5.1795339 22.1278052,5.24354639 L22,5.25 L2,5.25 C1.30964406,5.25 0.75,4.69035594 0.75,4 C0.75,3.35279131 1.24187466,2.8204661 1.87219476,2.75645361 L2,2.75 L22,2.75 Z" id="Combined-Shape" fill="#5F0080" fill-rule="nonzero"></path>
    </g>
</svg>