<svg width="24" height="24" viewBox="0 0 24 24" fill="none" xmlns="http://www.w3.org/2000/svg">
<path fill-rule="evenodd" clip-rule="evenodd" d="M11.9981 0.400393L12.0003 0.400391C14.5799 0.403152 17.0639 1.37003 18.9049 3.10576C20.7477 4.84336 21.7962 7.21222 21.7992 9.69641V9.69762C21.7992 13.6169 19.602 16.9662 17.4979 19.2902C15.3757 21.6341 13.2133 23.0841 13.0079 23.2192C12.707 23.4176 12.355 23.5204 11.9992 23.5204C11.6435 23.5204 11.2914 23.4176 10.9905 23.2192C10.7852 23.0841 8.62273 21.6341 6.50054 19.2902C4.39643 16.9662 2.19922 13.6169 2.19922 9.69762L2.19922 9.69641C2.20221 7.21222 3.25069 4.84336 5.09359 3.10576C6.93449 1.37003 9.41856 0.403152 11.9981 0.400393ZM11.9992 2.40039C9.91302 2.40289 7.92396 3.18592 6.46562 4.56094C5.00917 5.93418 4.20169 7.78304 4.19922 9.69823C4.19945 12.8785 6.00213 15.7599 7.98314 17.9478C9.7556 19.9055 11.5647 21.1906 11.9992 21.4875C12.4337 21.1906 14.2428 19.9055 16.0153 17.9478C17.9962 15.76 19.7988 12.8788 19.7992 9.69882C19.7969 7.78342 18.9894 5.93432 17.5328 4.56094C16.0745 3.18592 14.0854 2.40289 11.9992 2.40039ZM11.9992 7.68044C11.3974 7.68044 10.8312 7.90641 10.4225 8.29174C10.0158 8.67519 9.79922 9.18225 9.79922 9.69762C9.79922 10.083 9.92012 10.4651 10.1544 10.7957C10.3893 11.1271 10.7295 11.3939 11.1384 11.5536C11.5477 11.7135 12.0012 11.7561 12.4392 11.674C12.877 11.5918 13.2716 11.3904 13.5759 11.1035C13.8796 10.8172 14.0791 10.4597 14.1593 10.0798C14.2393 9.70048 14.1988 9.30658 14.0401 8.94521C13.881 8.583 13.6072 8.26382 13.244 8.03502C12.8803 7.8059 12.447 7.68044 11.9992 7.68044ZM9.05046 6.83657C9.84202 6.09024 10.9037 5.68044 11.9992 5.68044C12.8173 5.68044 13.6213 5.9089 14.3101 6.34284C14.9994 6.77711 15.5459 7.40036 15.8712 8.14078C16.1968 8.88204 16.2831 9.70145 16.1162 10.4927C15.9494 11.2833 15.5394 12.0011 14.948 12.5587C14.3572 13.1157 13.6115 13.489 12.8078 13.6397C12.0044 13.7904 11.171 13.7135 10.4108 13.4166C9.65035 13.1196 8.99099 12.613 8.52262 11.9521C8.05367 11.2903 7.79922 10.5057 7.79922 9.69762C7.79922 8.61258 8.25691 7.58478 9.05046 6.83657Z" fill="#222222"/>
</svg>
