<svg xmlns="http://www.w3.org/2000/svg" width="18" height="20" viewBox="0 0 18 20">
    <g fill="none" fill-rule="evenodd">
        <g>
            <path fill="#FFF" d="M0 0H375V812H0z" transform="translate(-115.000000, -289.000000)"/>
            <g>
                <g transform="translate(-115.000000, -289.000000) translate(20.000000, 124.000000) translate(0.000000, 150.000000)">
                    <rect width="335" height="52" fill="#FFDE00" rx="26"/>
                    <g>
                        <g>
                            <path d="M0 0H18V20H0z" transform="translate(95.000000, 14.000000) translate(0.000000, 1.000000)"/>
                            <path fill="#381E1E" fill-rule="nonzero" d="M8.947 2.5C4.005 2.5 0 5.754 0 9.769c0 2.584 1.661 4.844 4.153 6.14l-.843 3.237c-.033.098-.01.205.061.278.05.048.116.075.184.076.057-.003.112-.025.156-.063l3.624-2.526c.534.08 1.073.12 1.612.123 4.938 0 8.948-3.258 8.948-7.274 0-4.015-4.01-7.26-8.948-7.26" transform="translate(95.000000, 14.000000) translate(0.000000, 1.000000)"/>
                        </g>
                    </g>
                </g>
            </g>
        </g>
    </g>
</svg>
