<svg width="19" height="18" viewBox="0 0 19 18" fill="none" xmlns="http://www.w3.org/2000/svg">
<mask id="path-1-outside-1_1028_30249" maskUnits="userSpaceOnUse" x="3" y="0.700012" width="13" height="15" fill="black">
<rect fill="white" x="3" y="0.700012" width="13" height="15"/>
<path fill-rule="evenodd" clip-rule="evenodd" d="M14 7.16922C13.9511 4.69022 11.9501 2.70001 9.47322 2.70001C6.98306 2.70001 5 4.70181 5 7.21308C5 8.80201 5.82975 10.4249 7.23258 11.9965C7.7134 12.5351 8.2272 13.0286 8.75739 13.483C8.79426 13.5146 8.83528 13.5492 8.87875 13.5855L9.43462 14.04L9.47262 14.0193L9.54419 13.9668L9.85757 13.7292C9.97233 13.6396 10.092 13.5432 10.2167 13.4394C10.7408 13.0032 11.2586 12.5161 11.7415 11.9836C13.1588 10.4209 13.9999 8.78304 14 7.16922ZM9.5 9.00002C10.4941 9.00002 11.3 8.19413 11.3 7.20002C11.3 6.2059 10.4941 5.40002 9.5 5.40002C8.50589 5.40002 7.7 6.2059 7.7 7.20002C7.7 8.19413 8.50589 9.00002 9.5 9.00002Z"/>
</mask>
<path d="M14 7.16922L15.17 7.16929C15.17 7.16158 15.1699 7.15387 15.1698 7.14616L14 7.16922ZM7.23258 11.9965L8.10543 11.2173L8.10542 11.2173L7.23258 11.9965ZM8.75739 13.483L7.99605 14.3714L7.99605 14.3714L8.75739 13.483ZM8.87875 13.5855L8.12888 14.4837L8.13813 14.4912L8.87875 13.5855ZM9.43462 14.04L8.694 14.9458C9.06275 15.2473 9.57749 15.2952 9.99552 15.0668L9.43462 14.04ZM9.47262 14.0193L10.0335 15.046C10.0788 15.0213 10.1224 14.9936 10.1641 14.9631L9.47262 14.0193ZM9.54419 13.9668L10.2357 14.9106C10.2408 14.9069 10.2459 14.903 10.251 14.8992L9.54419 13.9668ZM9.85757 13.7292L10.5644 14.6616C10.569 14.6581 10.5735 14.6546 10.5781 14.6511L9.85757 13.7292ZM10.2167 13.4394L10.9652 14.3387L10.9652 14.3387L10.2167 13.4394ZM11.7415 11.9836L12.6081 12.7696L11.7415 11.9836ZM9.47322 3.87001C11.3029 3.87001 12.7937 5.34029 12.8302 7.19228L15.1698 7.14616C15.1085 4.04015 12.5973 1.53001 9.47322 1.53001V3.87001ZM6.17 7.21308C6.17 5.33799 7.63917 3.87001 9.47322 3.87001V1.53001C6.32694 1.53001 3.83 4.06562 3.83 7.21308H6.17ZM8.10542 11.2173C6.79372 9.74788 6.17 8.39317 6.17 7.21308H3.83C3.83 9.21086 4.86577 11.1019 6.35975 12.7756L8.10542 11.2173ZM9.51874 12.5946C9.02262 12.1694 8.54706 11.7121 8.10543 11.2173L6.35974 12.7756C6.87975 13.3581 7.43177 13.8878 7.99605 14.3714L9.51874 12.5946ZM9.62858 12.6873C9.5877 12.6532 9.5507 12.622 9.51874 12.5946L7.99605 14.3714C8.03781 14.4072 8.08287 14.4452 8.12892 14.4836L9.62858 12.6873ZM10.1752 13.1343L9.61937 12.6797L8.13813 14.4912L8.694 14.9458L10.1752 13.1343ZM8.91173 12.9925L8.87373 13.0132L9.99552 15.0668L10.0335 15.046L8.91173 12.9925ZM8.85272 13.023L8.78115 13.0754L10.1641 14.9631L10.2357 14.9106L8.85272 13.023ZM9.15073 12.7969L8.83735 13.0345L10.251 14.8992L10.5644 14.6616L9.15073 12.7969ZM9.46828 12.5401C9.35269 12.6363 9.24234 12.7251 9.13707 12.8074L10.5781 14.6511C10.7023 14.554 10.8313 14.4501 10.9652 14.3387L9.46828 12.5401ZM10.8748 11.1976C10.4324 11.6854 9.95497 12.135 9.46828 12.5401L10.9652 14.3387C11.5266 13.8714 12.0847 13.3468 12.6081 12.7696L10.8748 11.1976ZM12.83 7.16915C12.8299 8.37331 12.1953 9.74159 10.8748 11.1976L12.6081 12.7696C14.1222 11.1002 15.1699 9.19277 15.17 7.16929L12.83 7.16915ZM10.13 7.20002C10.13 7.54796 9.84794 7.83002 9.5 7.83002V10.17C11.1403 10.17 12.47 8.8403 12.47 7.20002H10.13ZM9.5 6.57002C9.84794 6.57002 10.13 6.85208 10.13 7.20002H12.47C12.47 5.55973 11.1403 4.23002 9.5 4.23002V6.57002ZM8.87 7.20002C8.87 6.85208 9.15206 6.57002 9.5 6.57002V4.23002C7.85971 4.23002 6.53 5.55973 6.53 7.20002H8.87ZM9.5 7.83002C9.15206 7.83002 8.87 7.54795 8.87 7.20002H6.53C6.53 8.8403 7.85971 10.17 9.5 10.17V7.83002Z" fill="#5F0080" mask="url(#path-1-outside-1_1028_30249)"/>
</svg>
