<svg width="93" height="200" viewBox="0 0 93 200" xmlns="http://www.w3.org/2000/svg">
    <path d="M73.79 80.993c.347.327.494.727.507 1.216.018.67-.19 1.48-.52 2.472l-.202.582c-.364 1.002-1.784 4.913-3.26 8.988l-.296.816-.115.316-.228.63c-1.556 4.295-3.014 8.33-3.196 8.863-.438 1.263-.514 2.22-.374 2.873.098.456.3.787.556 1.01.287.249.652.374 1.075.358.647-.025 1.474-.414 2.3-1.237.658-.656 1.325-1.59 1.9-2.806l.39-.847c.2-.448.403-.921.605-1.402l.199-.478a143.683 143.683 0 0 0 1.789-4.58l.219-.69c.23-.765.366-1.38.402-1.844a2.357 2.357 0 0 0-.037-.692c.494-.254.976-.403 1.419-.443.492-.046.932.042 1.256.293.293.226.476.582.535 1.046.064.506-.017 1.129-.263 1.866l-.186.503-2.985 7.646c-.43 1.076-.599 2.123-.503 2.883.058.453.21.816.429 1.067.246.282.579.447 1.01.447.861-.004 1.846-.46 2.913-1.365 1.875-1.58 3.38-4.374 4.105-5.935l.588-1.332a63.738 63.738 0 0 0 1.641-4.211c.26-.747.416-1.528.463-2.318.601-.587 1.099-.722 1.617-.724.485-.01.945.218 1.235.603.394.542.479 1.407.15 2.468l-4.9 13.198c2.483-1.965 4.83-2.355 6.217-1.876.766.334 1.277.91 1.47 1.548.11.368.113.753-.004 1.113-.559-.82-1.533-1.653-2.858-1.943-1.232-.27-2.777-.08-4.567 1.095l-2.064 4.927c-1.526 4.053-3.104 7.475-4.923 9.55-.737.84-1.51 1.455-2.343 1.774-.748.285-1.54.325-2.388.08-.599-.172-1.04-.51-1.322-.974-.315-.517-.433-1.178-.386-1.913.103-1.586.974-3.5 2.517-5.23a61.732 61.732 0 0 1 7.36-6.8l.262-.73.698-2.044.197-.561.855-2.845-2.532 2.927c-.799.888-2.448 2.526-4.965 2.2-1.147-.285-1.91-.723-2.4-1.25-.61-.654-.782-1.436-.808-2.155l-.048-1.358-.843 1.066c-2.262 2.858-4.587 3.738-6.133 3.7-.974-.025-1.83-.413-2.268-1.2-.403-.727-.441-1.756-.003-3.06l.744-2.17c.78-2.249 1.92-5.486 3.07-8.74l.344-.975.51-1.443c1.25-3.536 2.402-6.799 2.984-8.48l.193-.665c.224-.81.353-1.47.356-1.973a2.094 2.094 0 0 0-.128-.788c.504-.304 1.029-.486 1.527-.52.543-.037 1.052.105 1.442.473zm7.02 31.014-2.066 1.717c-1.885 1.6-5.819 5.199-7.035 8.142-.34.821-.437 1.555-.323 2.088.072.336.225.606.442.804.212.192.49.322.844.357.596.06 1.207-.143 1.823-.621.557-.433 1.126-1.102 1.698-1.976 1.23-1.88 2.502-4.738 3.822-8.156l.796-2.355zM14 80.563c1.273-.136 2.535.124 3.238 1.064.592.79.759 2.025.324 3.776l-.24.75a646.202 646.202 0 0 1-2.167 6.314L13.53 97.13c2.835-.416 7.367-2.693 11.045-5.386 2.805-2.054 5.087-4.356 5.841-6.25.24.089.345.213.39.387.081.324.08.7-.008 1.061-.861 3.49-7.44 8.411-12.96 10.815l.366.96c.866 2.213 2.976 6.972 4.562 9.988 1.982 3.79 4.098 5.505 7.333 5.7 1.036.062 2.11-.139 3.036-.506-.9.996-2.272 1.55-3.714 1.643-3.173.217-5.43-.688-7.43-2.908-2.418-2.685-4.463-7.211-7.235-13.854l-2.082.76-2.478 6.908c-.54 1.669-.827 2.967-.896 3.92-.056.78.043 1.343.237 1.736-.608.339-1.11.365-1.562.27-.528-.11-.986-.366-1.31-.778-.617-.785-.727-2.08-.134-3.828l7.786-22.523c.27-.834.32-1.521.214-2.032-.068-.325-.2-.59-.376-.794a1.453 1.453 0 0 0-.737-.457c-1.115-.3-2.642.09-4.242 1.064-1.51.918-3.09 2.34-4.411 4.056-2.157 2.801-3.612 6.379-3.038 9.82.105.629.35 1.14.637 1.517a2.3 2.3 0 0 0 .764.664c-.504.571-.819.613-1.124.528a1.558 1.558 0 0 1-.941-.626C.721 98.52.582 97.94.546 97.57c-.347-3.654 1.29-7.662 3.834-10.874 2.605-3.29 6.175-5.767 9.62-6.133zm29.071 13.37c.436-.008.862.08 1.185.327.25.192.428.482.502.878.078.418.045.94-.118 1.58l-3.26 9.626c-.21.598-.234 1.208-.109 1.693.153.592.52 1 1.01 1.136 1.052.295 2.272-.216 3.417-1.292 1.175-1.104 2.263-2.77 2.957-4.43l.446-1.097c.38-.959.709-1.851.946-2.515l.52-1.492c.515-1.517.858-2.882.734-3.742a3.597 3.597 0 0 1 1.577-.546c.47-.04.949.035 1.293.377.284.281.4.652.398 1.112-.002.605-.194 1.344-.528 2.24l-1.002 2.69 1.852-2.193c1.504-1.78 2.806-2.956 3.973-3.599 1.09-.599 2.046-.714 2.927-.376.553.257.912.67 1.092 1.159.21.569.182 1.229-.032 1.853a3.61 3.61 0 0 1-1.195 1.67 3.493 3.493 0 0 1-1.252.618c.052-.55.018-1.106-.154-1.552a1.756 1.756 0 0 0-.57-.783 1.748 1.748 0 0 0-.905-.341c-1.403-.14-3.502 1.395-4.999 3.464-1.24 1.691-2.526 4.56-3.812 8.484-.223.685-.245 1.078-.21 1.31-.65.282-1.038.36-1.418.36-.702-.002-1.226-.173-1.523-.548-.308-.389-.35-.96-.204-1.642l.343-1.611-1.18 1.148c-1.943 1.89-3.896 2.85-5.636 2.689a2.33 2.33 0 0 1-1.695-.983 2.439 2.439 0 0 1-.379-1.964l.528-2.241-1.41 1.82c-1.494 1.93-3.698 3.543-5.97 3.327-1.095-.104-1.993-.53-2.486-1.387-.465-.81-.564-1.968-.228-3.5.585-2.628 1.536-5.34 2.222-7.3l.246-.705c.306-.882.486-1.61.545-2.17.04-.382.02-.695-.043-.944.89-.455 1.898-.547 2.598-.217.299.14.533.364.642.683.11.323.095.726-.054 1.204l-.338 1.058c-.184.566-.384 1.165-.588 1.768l-.206.606c-.344 1.01-.69 2.007-.986 2.857-.354 1.02-.635 1.829-.753 2.2-.432 1.368-.514 2.432-.36 3.178.1.484.298.85.558 1.106.29.286.66.45 1.1.474 1.22.07 2.86-.99 4.09-2.784 1.795-2.634 2.75-5.519 3.528-7.882.126-.382.247-.75.365-1.097l.167-.481c.224-.626.478-1.9.322-2.698.583-.442 1.057-.575 1.52-.583z" fill="#D9D9D9" stroke="#D9D9D9" fill-rule="evenodd" stroke-opacity=".05"/>
</svg>
