<svg width="24" height="24" viewBox="0 0 24 24" xmlns="http://www.w3.org/2000/svg">
    <path d="M12 5c3.864 0 7 3.136 7 7s-3.136 7-7 7-7-3.136-7-7 3.136-7 7-7zm0 1.3A5.708 5.708 0 0 0 6.3 12c0 3.142 2.558 5.7 5.7 5.7 3.142 0 5.7-2.558 5.7-5.7 0-3.142-2.558-5.7-5.7-5.7zm-.122 7.981c.552 0 .898.34.898.865 0 .519-.346.86-.898.86-.54 0-.897-.341-.897-.86 0-.524.357-.865.897-.865zM12.03 8c1.48 0 2.47.854 2.47 2.049 0 .827-.41 1.405-1.146 1.843-.708.416-.908.692-.908 1.227v.308h-1.254l-.006-.368c-.048-.81.265-1.297 1.011-1.735l.159-.099c.548-.356.739-.637.739-1.128 0-.562-.454-.967-1.136-.967-.697 0-1.145.421-1.189 1.08H9.5C9.543 8.93 10.424 8 12.03 8z" fill="#CCC" fill-rule="evenodd"/>
</svg>
