<svg width="16" height="16" viewBox="0 0 16 16" fill="none" xmlns="http://www.w3.org/2000/svg">
<path opacity="0.5" d="M8 16C12.4183 16 16 12.4183 16 8C16 3.58172 12.4183 0 8 0C3.58172 0 0 3.58172 0 8C0 12.4183 3.58172 16 8 16Z" fill="#848F9A"/>
<path d="M11.4269 4.47968C11.6932 4.74595 11.7174 5.16261 11.4996 5.45622L11.4269 5.54034L9.06807 7.89801L11.4269 10.2561C11.7198 10.549 11.7198 11.0239 11.4269 11.3168C11.1607 11.583 10.744 11.6073 10.4504 11.3894L10.3663 11.3168L8.00807 8.95801L5.6524 11.3149C5.35951 11.6078 4.88463 11.6078 4.59174 11.3149C4.32547 11.0486 4.30127 10.632 4.51912 10.3383L4.59174 10.2542L6.94707 7.89801L4.59706 5.54755C4.30416 5.25465 4.30416 4.77978 4.59706 4.48689C4.86332 4.22062 5.27999 4.19641 5.5736 4.41427L5.65772 4.48689L8.00807 6.83701L10.3663 4.47968C10.6592 4.18679 11.1341 4.18679 11.4269 4.47968Z" fill="white"/>
</svg>
