<svg width="35" height="36" viewBox="0 0 35 36" fill="none" xmlns="http://www.w3.org/2000/svg">
<path id="Union" fill-rule="evenodd" clip-rule="evenodd" d="M28.2464 15.5801C28.2464 22.5201 22.6026 28.1602 15.6232 28.1602C8.64378 28.1602 3 22.5201 3 15.5801C3 8.64011 8.64378 3 15.6232 3C22.6026 3 28.2464 8.64011 28.2464 15.5801ZM25.1331 27.9423C22.499 29.9605 19.2016 31.1602 15.6232 31.1602C6.99474 31.1602 0 24.1848 0 15.5801C0 6.97545 6.99474 0 15.6232 0C24.2517 0 31.2464 6.97545 31.2464 15.5801C31.2464 19.5368 29.7674 23.1491 27.3306 25.897L34.477 33.0237L32.3528 35.1421L25.1331 27.9423Z" fill="black" fill-opacity="0.7"/>
</svg>
