<svg width="14" height="14" viewBox="0 0 14 14" fill="none" xmlns="http://www.w3.org/2000/svg">
<path fill-rule="evenodd" clip-rule="evenodd" d="M6.3 3.5H7.7V4.9H6.3V3.5ZM6.3 6.3H7.7V10.5H6.3V6.3ZM6.44553e-07 7C6.44553e-07 10.864 3.129 14 6.993 14C8.8504 14.0008 10.6321 13.2638 11.9461 11.9511C13.2601 10.6383 13.9989 8.8574 14 7C14 3.136 10.864 0 6.993 0C5.13745 0.0010606 3.35831 0.739123 2.0469 2.05185C0.735486 3.36457 -0.000795234 5.14445 6.44553e-07 7ZM1.4 7C1.4 3.906 3.906 1.4 7 1.4C10.094 1.4 12.6 3.906 12.6 7C12.6 10.094 10.094 12.6 7 12.6C6.26452 12.6003 5.5362 12.4556 4.85666 12.1743C4.17712 11.8929 3.55968 11.4804 3.03962 10.9604C2.51956 10.4403 2.10707 9.82288 1.82574 9.14334C1.54441 8.4638 1.39974 7.73548 1.4 7Z" fill="#F03F40"/>
</svg>
