<svg width="75" height="75" viewBox="0 0 75 75" fill="none" xmlns="http://www.w3.org/2000/svg">
<path d="M53.7576 39.1036C53.3112 38.9145 52.564 38.9518 51.7194 39.4551L51.7239 39.4432C51.7239 39.4432 53.2277 35.4773 53.2772 35.3456C53.4671 34.8398 53.4175 34.4355 53.2355 34.1888C53.1684 34.098 52.9871 33.9073 52.6315 33.8983C52.3733 33.8913 52.0946 33.9899 51.9457 34.0726C51.861 34.1192 51.863 34.2044 51.8647 34.2616C51.8725 34.4486 51.7992 34.8357 51.7031 35.1103C51.4236 35.9025 51.0696 36.6955 50.9751 36.9054C50.7636 37.3752 50.1899 38.5307 49.4374 39.1535C49.0904 39.442 48.7679 39.5999 48.4893 39.6007C48.0731 39.5979 48.0392 38.9518 48.3178 38.2705C48.3178 38.2705 49.421 35.5019 49.4435 35.4417C49.9746 34.0501 49.004 33.6078 48.0707 34.0796C48.0142 34.1086 47.9516 34.1663 47.9958 34.2129C48.1272 34.3521 48.0641 34.7343 47.8485 35.3775C47.8485 35.3775 47.2364 37.0085 46.7609 37.9938C45.913 39.7517 44.4874 39.8033 45.1033 38.056C45.2534 37.6272 47.7294 30.9329 47.7294 30.9329C48.0081 30.1415 48.0957 29.6378 47.7315 29.2978C47.3669 28.9569 46.7715 29.0261 46.3496 29.254C46.2891 29.2871 46.2142 29.3543 46.2678 29.3972C46.4654 29.5588 46.3914 29.9713 46.1917 30.6203C45.6536 32.1306 43.8307 37.1628 43.3949 38.4403C43.0041 39.5831 43.5925 40.1863 44.3937 40.2067C44.9932 40.2215 45.902 39.9048 46.7842 38.8114C46.8047 39.3622 47.0473 39.9952 47.9729 40.1814L47.9708 40.1842C49.1374 40.4105 49.8711 39.6044 50.1633 39.275C50.2508 39.1776 50.3834 39.0238 50.4567 38.9407L50.3912 39.1543C50.2676 39.4964 50.1796 39.7652 50.0647 40.0848C50.0401 40.1519 50.0152 40.2223 49.9877 40.2951C49.0212 41.0427 47.9745 41.9965 47.317 42.7224C46.1262 44.033 45.9986 45.6166 47.1046 45.9292C48.7561 46.3961 49.9002 44.2892 50.98 41.4028L51.4187 40.2472L51.4792 40.0893L51.4817 40.0827C52.9597 39.0876 53.9569 40.0107 53.9953 40.5251C54.0002 40.5971 54.1025 40.6077 54.1443 40.5631C54.578 40.102 54.3734 39.3626 53.7584 39.1023L53.7576 39.1036ZM49.775 41.1614C48.8629 43.5048 48.0191 45.1567 47.2122 45.0765C46.8566 45.0413 46.8038 44.6497 47.0105 44.1574C47.5154 42.9647 49.3363 41.4572 49.7905 41.0938L49.775 41.161V41.1614Z" fill="#CBD1D7"/>
<path d="M43.3584 34.0669C42.5977 33.7248 41.6946 34.1466 40.5063 35.634L40.5027 35.6332C40.8006 34.8918 40.8537 34.4089 40.5546 34.1184C40.1774 33.751 39.4699 33.983 39.2612 34.091C39.1884 34.1291 39.1388 34.1655 39.1695 34.235C39.3017 34.5325 39.0873 35.1688 38.8479 35.8423C38.7563 36.1001 38.521 36.7536 38.2399 37.4132C37.7857 38.4787 36.8519 39.559 36.1284 39.3601C35.8809 39.2922 35.797 38.9272 35.9222 38.5773L37.0876 35.2204C37.5221 33.8017 36.3576 33.7043 35.7119 34.0607C35.6272 34.1074 35.5613 34.163 35.5981 34.215C35.7401 34.4143 35.6063 34.9519 35.5228 35.1827C35.1955 36.0866 34.8575 37.3874 34.1328 38.4263C33.7253 39.061 33.1553 39.4804 32.7252 39.4571C32.2821 39.4125 32.1106 38.928 32.4151 37.9828C32.5358 37.6084 33.1332 35.9765 33.4638 34.9372C33.7785 33.9478 32.6626 33.7125 31.9699 34.0775C31.9134 34.1074 31.8471 34.1642 31.8901 34.2101C32.0173 34.3508 31.9809 34.7437 31.7686 35.3423C31.5153 36.0571 31.1024 37.1644 30.8614 38.2336C30.5733 39.5189 31.1269 40.122 32.0137 40.2043C32.9114 40.2877 33.7719 39.6866 34.3587 38.9423C34.2044 39.8286 34.8931 40.1838 35.2782 40.219C35.9545 40.2804 36.7222 39.9309 37.4816 39.205C37.3519 39.8188 37.624 40.2043 38.2914 40.2071C38.6196 40.2084 38.9551 40.0688 39.0157 39.9624C39.0243 39.9481 39.0275 39.9362 39.0214 39.9236C39.0087 39.9011 38.9547 39.8217 39.0672 39.4841C39.5288 38.1006 39.9887 37.0936 40.4335 36.4905C40.9303 35.8174 41.6214 35.2736 42.096 35.321C42.5597 35.3677 42.5854 35.9041 42.4238 36.1529C42.3424 36.2691 42.4058 36.3268 42.4889 36.3203C43.831 36.2114 44.34 34.5071 43.358 34.0656L43.3584 34.0669Z" fill="#CBD1D7"/>
<path d="M33.3029 40.6577C32.9547 41.0067 32.2763 41.2535 31.6392 41.2162C30.5172 41.1503 29.7941 40.5538 29.1047 39.2664C28.4774 38.0962 27.6255 36.1914 27.3709 35.5175C29.4214 34.6103 31.7476 32.8348 32.061 31.5852C32.14 31.2705 32.0627 30.9305 31.8585 30.7954C31.7452 30.7197 31.674 30.7443 31.6244 30.8098C31.2304 32.2566 27.7797 34.4982 25.8484 34.961C26.5116 33.102 27.1823 31.1964 27.222 31.0397C27.621 29.4709 26.7019 28.9733 25.7235 29.0752C23.1543 29.3432 20.3771 32.6319 20.6427 35.3714C20.6684 35.6349 20.826 36.1542 21.3023 36.2601C21.675 36.3424 21.984 36.1312 22.0617 35.8354C22.0715 35.7973 22.0351 35.7618 21.9979 35.7695C21.8395 35.8035 21.5138 35.5465 21.4357 35.0862C20.986 32.4371 24.1261 29.5691 25.4821 29.9284C25.7649 30.0033 25.8602 30.3474 25.6839 30.8769C25.1814 32.2967 23.3163 37.5908 22.8396 38.9551C22.3007 40.4965 23.2635 41.1115 24.309 40.7829C24.4125 40.7502 24.4448 40.6569 24.3822 40.6135C24.1122 40.4265 24.1408 39.7792 24.5299 38.5978C24.5545 38.5234 25.3753 36.279 25.4056 36.1955C25.5902 36.1288 25.7718 36.067 25.9232 36.0101C27.7912 40.3831 28.7871 42.1512 31.3973 41.9745C32.5918 41.8934 33.2784 41.0918 33.4527 40.7952C33.5124 40.6941 33.3811 40.5779 33.3021 40.6573L33.3029 40.6577Z" fill="#CBD1D7"/>
</svg>
