<svg xmlns="http://www.w3.org/2000/svg" width="24" height="24" viewBox="0 0 24 24">
    <g fill="none" fill-rule="evenodd">
        <g fill="#6FAFF3" fill-rule="nonzero">
            <g>
                <g>
                    <path d="M15 3.75c.38 0 .693.282.743.648l.007.102v2.689l1.72-1.72c.266-.266.683-.29.976-.072l.084.073c.267.266.29.683.073.976l-.073.084-2.78 2.78v4.39l3.802-2.194 1.018-3.798c.107-.4.518-.638.918-.53.364.097.593.446.552.809l-.021.109-.63 2.35 2.33-1.346c.358-.207.817-.084 1.024.275.19.329.102.742-.19.968l-.085.057-2.328 1.344 2.348.63c.364.097.593.446.552.809l-.021.11c-.098.363-.447.592-.81.55l-.109-.02-3.797-1.018-3.803 2.194 3.802 2.196 3.798-1.018c.4-.107.811.13.919.53.097.365-.09.737-.426.883l-.105.036-2.35.63 2.33 1.344c.359.208.482.666.275 1.025-.19.329-.591.46-.933.32l-.092-.045-2.328-1.344.629 2.348c.097.364-.09.737-.426.882l-.105.037c-.363.097-.736-.09-.882-.426l-.036-.105-1.017-3.797-3.803-2.197v4.391l2.78 2.78c.293.294.293.768 0 1.061-.266.267-.683.29-.976.073l-.084-.073-1.72-1.72v2.69c0 .414-.336.75-.75.75-.38 0-.693-.282-.743-.648l-.007-.102v-2.688l-1.72 1.718c-.266.267-.683.29-.976.073l-.084-.073c-.267-.266-.29-.683-.073-.976l.073-.084 2.78-2.78v-4.391l-3.802 2.195-1.018 3.798c-.107.4-.518.638-.918.53-.364-.097-.593-.446-.552-.809l.021-.109.63-2.35-2.33 1.346c-.358.207-.817.084-1.024-.275-.19-.329-.102-.742.19-.968l.085-.057 2.328-1.344-2.348-.63c-.364-.097-.593-.446-.552-.809l.021-.11c.098-.363.447-.592.81-.55l.109.02 3.797 1.018L13.5 15l-3.802-2.195L5.9 13.823c-.4.107-.811-.13-.919-.53-.097-.365.09-.737.426-.883l.105-.036 2.35-.63-2.33-1.344c-.359-.208-.482-.666-.275-1.025.19-.329.591-.46.933-.32l.092.045 2.328 1.344-.629-2.348c-.097-.364.09-.737.426-.882l.105-.037c.363-.097.736.09.882.426l.036.105 1.017 3.797 3.803 2.196v-4.39l-2.78-2.78c-.293-.294-.293-.768 0-1.061.266-.267.683-.29.976-.073l.084.073 1.72 1.719V4.5c0-.414.336-.75.75-.75z" transform="translate(-20 -861) translate(0 845) translate(17 13) rotate(30 15 15)"/>
                </g>
            </g>
        </g>
    </g>
</svg>
