<svg xmlns="http://www.w3.org/2000/svg" width="24" height="24" viewBox="0 0 24 24">
    <g fill="none" fill-rule="evenodd">
        <g>
            <g>
                <g>
                    <g>
                        <g>
                            <g>
                                <path d="M0 0H24V24H0z" transform="translate(-319.000000, -1055.000000) translate(0.000000, 88.000000) translate(0.000000, 899.000000) translate(0.000000, 56.000000) translate(20.000000, 0.000000) translate(299.000000, 12.000000)"/>
                                <path fill="#ddd" fill-rule="nonzero" d="M12.078 14.73l3.75-4.5c.407-.488.06-1.23-.577-1.23h-7.5c-.635 0-.983.742-.576 1.23l3.75 4.5c.3.36.853.36 1.153 0z" transform="translate(-319.000000, -1055.000000) translate(0.000000, 88.000000) translate(0.000000, 899.000000) translate(0.000000, 56.000000) translate(20.000000, 0.000000) translate(299.000000, 12.000000) translate(11.501433, 12.000000) rotate(-90.000000) translate(-11.501433, -12.000000)"/>
                            </g>
                        </g>
                    </g>
                </g>
            </g>
        </g>
    </g>
</svg>
