<?xml version="1.0" encoding="UTF-8"?>
<svg width="24px" height="24px" viewBox="0 0 24 24" version="1.1" xmlns="http://www.w3.org/2000/svg" xmlns:xlink="http://www.w3.org/1999/xlink">
    <title>tab_btn_profile_sel</title>
    <defs>
        <filter id="filter-1">
            <feColorMatrix in="SourceGraphic" type="matrix" values="0 0 0 0 0.372549 0 0 0 0 0.000000 0 0 0 0 0.501961 0 0 0 1.000000 0"></feColorMatrix>
        </filter>
    </defs>
    <g id="tab_btn_profile_sel" stroke="none" stroke-width="1" fill="none" fill-rule="evenodd">
        <g filter="url(#filter-1)">
            <g transform="translate(2.000000, 2.000000)"></g>
        </g>
        <path d="M12,11.5 C17.7482191,11.5 22.5,15.8089651 22.5,21.0825688 C22.5,21.8643774 21.8701558,22.5 21.0909091,22.5 L21.0909091,22.5 L2.90909091,22.5 C2.12984417,22.5 1.5,21.8643774 1.5,21.0825688 C1.5,15.7688302 6.21628629,11.5 12,11.5 Z M12,1.5 C14.4852814,1.5 16.5,3.51471863 16.5,6 C16.5,8.48528137 14.4852814,10.5 12,10.5 C9.51471863,10.5 7.5,8.48528137 7.5,6 C7.5,3.51471863 9.51471863,1.5 12,1.5 Z" id="Combined-Shape" fill="#5F0080" fill-rule="nonzero"></path>
    </g>
</svg>