<svg width="227" height="489" viewBox="0 0 227 489" xmlns="http://www.w3.org/2000/svg">
    <path d="m177.314 196.037.315.004c1.396.045 2.742.476 3.785 1.463.99.935 1.426 2.074 1.465 3.477.044 1.601-.412 3.527-1.165 5.86l-.145.442-.5 1.432-.577 1.59-.172.474-1.547 4.264-.169.464-.363 1.002c-1.306 3.598-2.911 8.025-4.574 12.613l-.37 1.022-.559 1.539-.559 1.542-.557 1.54-.37 1.021-.16.443-.32.882c-3.504 9.674-6.63 18.33-7.047 19.548-1.01 2.915-1.212 5.124-.888 6.636.2.932.598 1.618 1.125 2.075.568.492 1.292.73 2.128.699 1.455-.056 3.293-.973 5.14-2.814 1.47-1.465 2.954-3.514 4.257-6.15l.243-.5.948-2.064c.307-.688.618-1.4.929-2.126l.31-.73.274-.65.137-.328.136-.328.271-.654a351.586 351.586 0 0 0 4.283-10.982l.002-.006.502-1.59c.544-1.81.87-3.262.955-4.358.083-1.067-.076-1.819-.41-2.299 1.754-1.121 3.324-1.522 4.737-1.506 1.344.015 2.544.408 3.421 1.207.795.724 1.317 1.777 1.464 3.148.13 1.23-.038 2.706-.574 4.432l-.12.373-.463 1.254-7.303 18.7c-.997 2.495-1.405 4.925-1.182 6.692.12.939.418 1.699.875 2.221.47.538 1.105.847 1.923.847 1.977-.01 4.22-1.099 6.66-3.167 4.363-3.679 7.88-10.098 9.672-13.892l.168-.358 1.435-3.25c1.03-2.403 2.64-6.306 3.995-10.25a20.302 20.302 0 0 0 1.114-5.935c1.631-1.6 3.12-1.98 4.639-1.987a4.432 4.432 0 0 1 3.62 1.773c1.024 1.41 1.344 3.627.558 6.378l-.095.32-.284.824-10.868 29.208c5.51-3.696 10.564-4.343 13.749-3.331l.21.07.47.184c1.904.827 3.174 2.408 3.624 4.148.395 1.527.156 3.177-.845 4.532-.9-1.215-1.599-2.42-2.715-3.458a9.45 9.45 0 0 0-4.442-2.292c-2.64-.572-5.989-.18-9.86 2.17l-.365.225-.854.564-4.23 11.354c-3.766 9.999-7.674 18.431-12.16 23.55-1.892 2.157-3.883 3.72-6.016 4.535-1.971.754-4.061.862-6.296.217-1.658-.478-2.872-1.42-3.65-2.7-.839-1.379-1.173-3.136-1.046-5.1.26-4.005 2.434-8.85 6.341-13.232a151.703 151.703 0 0 1 16.792-15.685l1.125-.892.568-1.577 1.709-5.002.475-1.357 1.113-3.702-3.987 4.61c-2.022 2.245-6.173 6.309-12.45 5.65l-.38-.045-.863-.143-.726-.169c-2.324-.606-3.91-1.698-4.958-3.033-1.328-1.69-1.798-3.755-1.866-5.663a12.677 12.677 0 0 1 .034-1.512c-.293.403-.601.81-.926 1.22-5.745 7.26-11.664 9.417-15.579 9.32-2.664-.068-4.97-1.167-6.159-3.308-1.022-1.841-1.207-4.42-.178-7.696l.119-.367 1.82-5.31c1.661-4.789 3.992-11.41 6.422-18.296l.541-1.534.272-.769.699-1.98.466-1.318 1.196-3.387c2.982-8.441 5.739-16.243 7.19-20.43l.098-.28.465-1.603c.526-1.903.837-3.452.845-4.636.008-1.087-.242-1.886-.742-2.43 1.484-1.007 3.01-1.513 4.489-1.587l.316-.01zm19.267 80.007-3.09 2.568-.256.219c-4.636 3.954-13.858 12.434-16.739 19.407-.76 1.837-1.008 3.48-.75 4.678.141.66.432 1.194.86 1.583.413.375.958.62 1.647.688 1.296.131 2.613-.336 3.943-1.37 1.312-1.02 2.645-2.6 3.992-4.657 2.984-4.56 6.067-11.497 9.27-19.79l1.123-3.326zm-161.93-79.786c3.4-.363 6.714.4 8.575 2.887 1.541 2.06 2.055 5.266.909 9.864l-.597 1.862c-.968 2.905-2.974 8.748-5.3 15.45l-3.572 10.235c6.894-1.43 17.107-6.686 25.492-12.826 7.204-5.275 13.029-11.21 14.362-15.918.407-.157.592-.07.821.087.582.395.97 1.091 1.176 1.904.227.897.228 1.941-.018 2.944-2.102 8.525-17.868 20.579-31.467 26.654l.647 1.7c2.112 5.393 7.255 16.995 11.12 24.347 4.689 8.96 9.662 13.089 17.333 13.552 4.113.246 8.479-1.27 10.995-3.474-2.492 4.563-7.342 7.356-12.647 7.694-8.01.55-13.706-1.745-18.752-7.347-5.871-6.519-10.868-17.44-17.553-33.44l-4.123 1.505L26.11 260.5c-1.294 4.001-1.99 7.116-2.154 9.401-.177 2.452.282 3.972 1.153 4.742-1.957 1.01-3.719 1.143-5.262.82-1.462-.307-2.726-1.025-3.621-2.164-1.614-2.053-2.01-5.42-.444-10.043l19.033-55.054c.61-1.886.745-3.44.503-4.598-.139-.661-.399-1.201-.759-1.617a2.844 2.844 0 0 0-1.443-.892c-2.587-.698-6.115.275-9.81 2.52-3.626 2.206-7.415 5.62-10.587 9.74-5.15 6.689-8.66 15.227-7.288 23.45.235 1.406.781 2.552 1.42 3.392.676.89 1.459 1.427 2.116 1.625-.087.876-.482 1.554-1.06 1.988-.728.548-1.727.706-2.704.435-1.217-.272-2.076-.965-2.69-1.799-.92-1.251-1.3-2.816-1.399-3.82-.863-9.102 3.187-19.095 9.528-27.103 6.5-8.21 15.423-14.353 24.008-15.265zm71.145 32.685c1.238-.022 2.437.252 3.348.949.74.567 1.28 1.414 1.5 2.589.207 1.112.132 2.504-.309 4.206l-.195.695-7.786 22.868c-.46 1.313-.523 2.653-.247 3.72.3 1.159.991 1.991 1.965 2.263 2.378.665 5.106-.585 7.665-2.99 2.805-2.637 5.4-6.62 7.056-10.579l1.087-2.673a199.956 199.956 0 0 0 2.303-6.122l1.27-3.642c1.395-4.112 2.357-7.769 1.55-9.61 1.196-.756 3.204-1.489 5.19-1.445 1.188.026 2.377.33 3.262 1.21.828.817 1.192 1.887 1.188 3.236-.005 1.544-.483 3.435-1.334 5.72l-1.481 3.859 2.759-3.468c3.536-4.377 6.678-7.27 9.528-8.86 2.858-1.593 5.408-1.854 7.75-.946l.465.197c1.469.677 2.39 1.828 2.82 3.188.486 1.534.358 3.327-.284 5.021a9.827 9.827 0 0 1-3.234 4.328 9.429 9.429 0 0 1-4.878 1.872c.56-1.357.844-3.122.362-4.516-.217-.63-.585-1.185-1.124-1.596-.476-.364-1.089-.617-1.86-.694-3.276-.329-8.107 3.395-11.566 8.178-3.004 4.093-6.106 11.044-9.218 20.54-.631 1.938-.529 2.768-.39 3.142-.234.353-.758.65-1.374.895a8.094 8.094 0 0 1-2.905.545c-2.004-.008-3.452-.559-4.288-1.614-.863-1.09-1.051-2.679-.64-4.615.164-.767.391-1.446.682-2.027a37.347 37.347 0 0 1-1.519 1.565c-4.947 4.811-9.931 7.182-14.345 6.775a6.418 6.418 0 0 1-4.67-2.705 6.686 6.686 0 0 1-1.04-5.385l.527-2.242-1.41 1.821c-3.814 4.928-9.46 8.96-15.238 8.411-2.94-.279-5.319-1.462-6.633-3.751-1.205-2.099-1.512-5.091-.638-9.073 1.436-6.456 3.77-13.118 5.456-17.931l.602-1.723c.724-2.09 1.156-3.817 1.295-5.143.14-1.333-.031-2.28-.424-2.863 2.64-1.623 5.844-1.77 7.91-.557.837.49 1.479 1.211 1.771 2.181.27.9.242 2-.165 3.308l-.828 2.592a405.066 405.066 0 0 1-1.44 4.332l-.274.808c-.918 2.7-1.854 5.396-2.641 7.662-.863 2.486-1.548 4.457-1.835 5.36-1.008 3.185-1.222 5.668-.863 7.407.21 1.017.616 1.794 1.166 2.337.584.577 1.334.9 2.22.951 2.82.16 6.55-2.39 9.367-6.5l.487-.74c3.879-5.668 6.12-12.472 7.982-18.142.33-1.007.649-1.977.962-2.896l.41-1.181c.577-1.614 1.373-5.238.579-6.829.117-.322.274-.44.46-.545a8.98 8.98 0 0 1 4.132-1.128zm-35.574-45.939 4.396 13.297-2.108.72-3.447-10.438-2.102 8.147-6.695-4.918 3.39 10.256-2.064.71-4.405-13.298 2.578-.882 6.08 5.097 1.805-7.81 2.572-.881zm83.93 2.155 10.715 4.166-.712 1.92-4.326-1.687-4.194 11.197-2.096-.816 4.194-11.198-4.293-1.67.711-1.912zm-16.628-4.626 9.84 2.437-.447 1.885-7.675-1.896-.934 3.94 6.75 1.67-.447 1.885-6.758-1.67-.962 4.04 7.782 1.924-.452 1.886-9.939-2.464 3.242-13.637zm-51.556-1.036 8.2 12.898-2.27.4-1.896-3.085-6.811 1.217-.757 3.557-2.184.39 3.426-14.967 2.292-.41zm-.805 2.313-1.521 7.086 5.322-.937-3.801-6.15zm33.212-3.947 2.23.239-.749 7.318 7.42-6.606 2.533.27-6.064 5.225 5.066 8.78-2.64-.284-4.064-7.155-2.5 2.139-.441 4.264-2.23-.239 1.439-13.95zm-9.05 1.087a4.26 4.26 0 0 1 1.154 2.287l.032.236.026.58c.069.864-.128 1.7-.53 2.414a4.098 4.098 0 0 1-2.053 1.803l-.226.082 3.19 5.206-2.665.083-3.312-4.7-3.245.106.152 4.807-2.242.063-.44-14.02 6.254-.203a5.295 5.295 0 0 1 3.905 1.256zm-4.102.739-3.718.126.12 5.274 3.791-.126.232-.013c.756-.063 1.363-.328 1.812-.811.443-.478.74-1.188.82-2.33-.112-.67-.424-1.173-.968-1.533-.476-.315-1.155-.517-2.089-.587z" fill="#D9D9D9" stroke="#D9D9D9" fill-rule="evenodd" stroke-opacity=".05"/>
</svg>
