<svg width="54" height="70" viewBox="0 0 54 70" fill="none" xmlns="http://www.w3.org/2000/svg">
<g clip-path="url(#clip0_2283_59968)">
<rect width="54" height="70" rx="8" fill="#ECEFF3"/>
<path d="M16.6667 35.6666V45C16.6667 45.7072 16.9476 46.3855 17.4477 46.8856C17.9478 47.3857 18.6261 47.6666 19.3333 47.6666H26V35.6666H16.6667ZM28 35.6666V47.6666H34.6667C35.3739 47.6666 36.0522 47.3857 36.5523 46.8856C37.0524 46.3855 37.3333 45.7072 37.3333 45V35.6666H28ZM36.0547 29C36.2502 28.3517 36.3442 27.677 36.3333 27C36.3333 24.4266 34.24 22.3333 31.6667 22.3333C29.504 22.3333 28.06 24.3093 27.128 26.4466C26.2093 24.4266 24.692 22.3333 22.3333 22.3333C19.76 22.3333 17.6667 24.4266 17.6667 27C17.6667 27.7946 17.772 28.452 17.9453 29H16.3333V33H37.6667V29H36.0547ZM20.3333 27C20.3333 25.8973 21.2307 25 22.3333 25C23.5173 25 24.6187 27.0333 25.264 29H21.6667C21.168 29 20.3333 29 20.3333 27ZM31.6667 25C32.7693 25 33.6667 25.8973 33.6667 27C33.6667 29 32.832 29 32.3333 29H29.0307C29.7107 26.8986 30.6987 25 31.6667 25Z" fill="#CBD1D7"/>
<path d="M15 30.3333C15 29.5969 15.597 29 16.3333 29H37.6667C38.403 29 39 29.5969 39 30.3333V32.3333C39 33.0697 38.403 33.6666 37.6667 33.6666H16.3333C15.597 33.6666 15 33.0697 15 32.3333V30.3333Z" fill="#CBD1D7"/>
</g>
<defs>
<clipPath id="clip0_2283_59968">
<rect width="54" height="70" fill="white"/>
</clipPath>
</defs>
</svg>
