<svg width="249" height="410" viewBox="0 0 249 410" fill="none" xmlns="http://www.w3.org/2000/svg">
<rect width="249" height="410" fill="#F5F5F5"/>
<path fill-rule="evenodd" clip-rule="evenodd" d="M166.134 167L166.342 167.003C167.261 167.032 168.148 167.315 168.835 167.963C169.487 168.576 169.774 169.324 169.8 170.245C169.829 171.295 169.528 172.559 169.032 174.09L168.937 174.38L168.607 175.32L168.227 176.364L168.114 176.675L167.095 179.473L166.984 179.778L166.745 180.435C165.885 182.797 164.827 185.702 163.732 188.713L163.488 189.384L163.12 190.394L162.752 191.406L162.385 192.416L162.141 193.086L162.036 193.377L161.825 193.956C159.517 200.305 157.458 205.985 157.183 206.785C156.518 208.698 156.385 210.147 156.599 211.14C156.73 211.751 156.992 212.202 157.34 212.501C157.714 212.824 158.191 212.981 158.741 212.96C159.7 212.923 160.91 212.322 162.127 211.113C163.095 210.152 164.073 208.807 164.931 207.077L165.091 206.749L165.715 205.395C165.917 204.943 166.122 204.476 166.327 203.999L166.531 203.52L166.712 203.094L166.802 202.879L166.892 202.663L167.07 202.234C168.051 199.848 168.991 197.445 169.891 195.027L169.893 195.023L170.223 193.979C170.582 192.792 170.796 191.839 170.852 191.119C170.907 190.419 170.802 189.926 170.582 189.611C171.738 188.875 172.772 188.612 173.702 188.622C174.588 188.632 175.378 188.89 175.956 189.414C176.479 189.89 176.823 190.581 176.92 191.48C177.006 192.288 176.895 193.256 176.542 194.389L176.463 194.634L176.158 195.457L171.348 207.729C170.691 209.366 170.422 210.961 170.569 212.121C170.648 212.737 170.844 213.236 171.145 213.578C171.455 213.931 171.873 214.134 172.412 214.134C173.714 214.128 175.192 213.413 176.799 212.056C179.673 209.641 181.989 205.429 183.169 202.939L183.28 202.704L184.225 200.571C184.904 198.994 185.964 196.433 186.857 193.844C187.295 192.59 187.542 191.277 187.59 189.949C188.665 188.899 189.645 188.65 190.646 188.645C191.107 188.638 191.564 188.739 191.979 188.941C192.393 189.144 192.754 189.441 193.03 189.809C193.705 190.734 193.916 192.189 193.398 193.995L193.335 194.205L193.148 194.745L185.99 213.914C189.619 211.488 192.948 211.064 195.046 211.728L195.184 211.774L195.494 211.894C196.748 212.437 197.584 213.475 197.881 214.617C198.141 215.619 197.984 216.702 197.324 217.591C196.731 216.793 196.271 216.003 195.536 215.321C194.714 214.568 193.703 214.048 192.61 213.817C190.871 213.442 188.665 213.699 186.116 215.241L185.875 215.389L185.313 215.759L182.527 223.211C180.046 229.773 177.472 235.306 174.517 238.666C173.271 240.081 171.959 241.107 170.555 241.642C169.256 242.137 167.88 242.208 166.408 241.784C165.315 241.471 164.516 240.853 164.003 240.012C163.451 239.107 163.231 237.954 163.314 236.665C163.486 234.037 164.918 230.857 167.491 227.982C170.911 224.277 174.609 220.836 178.551 217.688L179.292 217.103L179.667 216.068L180.792 212.785L181.105 211.894L181.838 209.465L179.212 212.49C177.88 213.964 175.146 216.631 171.012 216.198L170.761 216.169L170.193 216.075L169.715 215.964C168.184 215.566 167.139 214.85 166.449 213.973C165.574 212.864 165.265 211.509 165.22 210.257C165.208 209.926 165.215 209.595 165.242 209.265C165.049 209.529 164.846 209.796 164.632 210.065C160.848 214.83 156.95 216.245 154.371 216.182C152.616 216.137 151.097 215.416 150.314 214.011C149.641 212.803 149.519 211.11 150.197 208.96L150.275 208.719L151.474 205.235C152.568 202.092 154.104 197.746 155.704 193.227L156.06 192.221L156.24 191.716L156.7 190.417L157.007 189.552L157.795 187.329C159.759 181.789 161.575 176.669 162.531 173.921L162.595 173.737L162.901 172.685C163.248 171.436 163.453 170.42 163.458 169.643C163.463 168.929 163.299 168.405 162.969 168.048C163.947 167.387 164.952 167.055 165.926 167.007L166.134 167ZM178.825 219.507L176.79 221.192L176.621 221.336C173.567 223.93 167.493 229.496 165.595 234.072C165.095 235.277 164.931 236.356 165.101 237.142C165.194 237.575 165.386 237.926 165.668 238.181C165.94 238.427 166.299 238.588 166.753 238.632C167.606 238.718 168.474 238.412 169.35 237.733C170.214 237.064 171.092 236.027 171.979 234.677C173.945 231.684 175.975 227.132 178.085 221.689L178.825 219.507ZM72.166 167.145C74.4055 166.907 76.5883 167.408 77.8141 169.04C78.8291 170.392 79.1677 172.496 78.4128 175.513L78.0196 176.735C77.382 178.642 76.0607 182.476 74.5287 186.875L72.1759 193.592C76.7168 192.653 83.4438 189.204 88.9668 185.174C93.7118 181.712 97.5486 177.817 98.4266 174.728C98.6947 174.625 98.8165 174.682 98.9674 174.785C99.3507 175.044 99.6063 175.501 99.742 176.034C99.8915 176.623 99.8922 177.308 99.7301 177.966C98.3456 183.561 87.961 191.472 79.0037 195.459L79.4298 196.574C80.821 200.114 84.2085 207.728 86.7543 212.553C89.8428 218.433 93.1184 221.143 98.171 221.446C100.88 221.608 103.756 220.613 105.413 219.167C103.772 222.161 100.577 223.994 97.0829 224.216C91.8069 224.577 88.0552 223.071 84.7315 219.394C80.8644 215.116 77.573 207.949 73.1698 197.448L70.4541 198.436L66.5403 209.305C65.688 211.931 65.2295 213.975 65.1215 215.475C65.0049 217.084 65.3072 218.082 65.8809 218.587C64.5919 219.25 63.4313 219.337 62.415 219.125C61.452 218.924 60.6195 218.453 60.03 217.705C58.9669 216.358 58.706 214.148 59.7375 211.114L72.274 174.984C72.6758 173.746 72.7647 172.726 72.6053 171.966C72.5138 171.532 72.3425 171.178 72.1054 170.905C71.8557 170.618 71.5242 170.414 71.1549 170.319C69.451 169.861 67.1272 170.5 64.6934 171.973C62.305 173.421 59.8093 175.662 57.72 178.365C54.3278 182.755 52.0159 188.358 52.9196 193.755C53.0744 194.678 53.434 195.43 53.8549 195.981C54.3002 196.565 54.8159 196.918 55.2487 197.048C55.1913 197.622 54.9312 198.067 54.5505 198.352C54.0709 198.712 53.4129 198.816 52.7694 198.638C51.9678 198.459 51.402 198.004 50.9976 197.457C50.3916 196.636 50.1413 195.609 50.0761 194.95C49.5077 188.977 52.1753 182.418 56.3519 177.163C60.6333 171.775 66.5113 167.744 72.166 167.145ZM119.027 188.595C119.843 188.581 120.632 188.761 121.232 189.218C121.72 189.59 122.076 190.146 122.22 190.917C122.357 191.647 122.307 192.561 122.017 193.678L121.889 194.134L116.76 209.141C116.457 210.003 116.416 210.882 116.597 211.583C116.795 212.343 117.25 212.889 117.892 213.068C119.458 213.504 121.255 212.684 122.94 211.106C124.788 209.375 126.497 206.761 127.588 204.163L128.304 202.409C128.832 201.078 129.337 199.738 129.821 198.391L130.657 196.001C131.576 193.302 132.21 190.902 131.678 189.694C132.466 189.198 133.789 188.717 135.097 188.746C135.879 188.763 136.663 188.962 137.245 189.54C137.791 190.076 138.031 190.778 138.028 191.663C138.025 192.677 137.71 193.918 137.149 195.417L136.174 197.95L137.991 195.674C140.32 192.801 142.39 190.903 144.267 189.859C146.149 188.814 147.829 188.643 149.372 189.239L149.678 189.368C150.646 189.812 151.252 190.567 151.535 191.46C151.855 192.467 151.771 193.643 151.348 194.755C150.919 195.882 150.181 196.866 149.218 197.595C148.285 198.298 147.171 198.724 146.005 198.824C146.374 197.933 146.561 196.775 146.244 195.86C146.101 195.447 145.858 195.083 145.503 194.813C145.19 194.574 144.786 194.408 144.278 194.357C142.12 194.142 138.938 196.585 136.66 199.724C134.681 202.411 132.638 206.972 130.588 213.204C130.173 214.476 130.24 215.021 130.331 215.266C130.177 215.498 129.832 215.693 129.426 215.854C128.816 216.089 128.167 216.21 127.513 216.211C126.193 216.206 125.239 215.845 124.689 215.152C124.12 214.437 123.996 213.394 124.267 212.123C124.375 211.62 124.525 211.174 124.716 210.793C124.393 211.145 124.059 211.488 123.716 211.82C120.457 214.978 117.174 216.534 114.267 216.266C113.656 216.211 113.064 216.023 112.533 215.717C112.001 215.41 111.544 214.992 111.191 214.491C110.833 213.984 110.586 213.407 110.468 212.797C110.35 212.188 110.363 211.561 110.506 210.957L110.853 209.486L109.924 210.681C107.412 213.915 103.693 216.561 99.8875 216.201C97.951 216.018 96.3841 215.241 95.5186 213.739C94.7249 212.362 94.5227 210.398 95.0983 207.785C96.0442 203.548 97.5815 199.176 98.6921 196.017L99.0886 194.886C99.5654 193.515 99.85 192.381 99.9416 191.511C100.034 190.636 99.9211 190.015 99.6623 189.632C101.401 188.567 103.512 188.471 104.872 189.267C105.424 189.588 105.847 190.061 106.039 190.698C106.217 191.289 106.198 192.011 105.93 192.869L105.385 194.57C105.074 195.519 104.758 196.467 104.436 197.413L104.256 197.943C103.651 199.715 103.035 201.485 102.516 202.972C101.948 204.603 101.497 205.897 101.308 206.489C100.644 208.58 100.503 210.209 100.739 211.35C100.878 212.018 101.145 212.528 101.507 212.884C101.892 213.263 102.386 213.475 102.969 213.508C104.827 213.613 107.284 211.94 109.139 209.242L109.46 208.757C112.015 205.037 113.491 200.572 114.718 196.851C114.935 196.19 115.145 195.553 115.351 194.95L115.621 194.175C116.001 193.116 116.526 190.737 116.003 189.693C116.08 189.482 116.183 189.405 116.306 189.336C117.14 188.874 118.073 188.62 119.027 188.595Z" fill="#D9D9D9" stroke="#D9D9D9" stroke-opacity="0.05"/>
</svg>
