<svg width="150" height="264" viewBox="0 0 150 264" fill="none" xmlns="http://www.w3.org/2000/svg">
<rect width="150" height="264" fill="#F5F5F5"/>
<path fill-rule="evenodd" clip-rule="evenodd" d="M100.622 109L100.748 109.002C101.307 109.02 101.847 109.192 102.264 109.585C102.661 109.959 102.836 110.413 102.851 110.973C102.869 111.612 102.686 112.381 102.385 113.312L102.326 113.488L102.126 114.06L101.895 114.694L101.826 114.883L101.207 116.585L101.139 116.77L100.993 117.17C100.47 118.606 99.8275 120.373 99.1614 122.204L99.0132 122.612L98.7893 123.226L98.5653 123.841L98.3422 124.456L98.194 124.863L98.1299 125.04L98.0018 125.392C96.5983 129.253 95.3462 132.707 95.1792 133.193C94.7746 134.357 94.6937 135.238 94.8235 135.842C94.9036 136.214 95.063 136.487 95.2741 136.67C95.5016 136.866 95.7916 136.961 96.1264 136.949C96.7092 136.926 97.4454 136.56 98.1852 135.826C98.774 135.241 99.3684 134.423 99.8903 133.371L99.9877 133.172L100.367 132.348C100.49 132.074 100.615 131.789 100.739 131.5L100.864 131.208L100.973 130.949L101.028 130.818L101.083 130.687L101.191 130.426C101.788 128.975 102.36 127.514 102.907 126.043L102.908 126.041L103.109 125.406C103.327 124.684 103.457 124.105 103.491 123.667C103.524 123.241 103.461 122.941 103.327 122.75C104.03 122.302 104.658 122.142 105.224 122.149C105.763 122.155 106.243 122.311 106.595 122.63C106.913 122.919 107.122 123.34 107.181 123.887C107.233 124.378 107.166 124.967 106.951 125.655L106.903 125.804L106.718 126.305L103.792 133.768C103.393 134.763 103.23 135.733 103.319 136.438C103.367 136.813 103.486 137.116 103.669 137.325C103.858 137.539 104.112 137.663 104.44 137.663C105.232 137.659 106.13 137.224 107.107 136.399C108.855 134.931 110.264 132.369 110.981 130.855L111.049 130.712L111.623 129.415C112.036 128.456 112.681 126.898 113.224 125.324C113.49 124.561 113.64 123.763 113.67 122.956C114.323 122.317 114.92 122.165 115.528 122.163C115.809 122.158 116.086 122.22 116.338 122.343C116.59 122.466 116.81 122.646 116.978 122.87C117.388 123.433 117.516 124.318 117.201 125.416L117.163 125.543L117.05 125.872L112.697 137.529C114.904 136.054 116.928 135.795 118.204 136.199L118.288 136.227L118.476 136.301C119.239 136.631 119.747 137.262 119.928 137.956C120.086 138.565 119.99 139.224 119.589 139.765C119.229 139.28 118.949 138.799 118.502 138.385C118.002 137.926 117.387 137.61 116.722 137.47C115.665 137.242 114.324 137.398 112.773 138.336L112.627 138.426L112.285 138.651L110.59 143.182C109.082 147.173 107.517 150.538 105.72 152.581C104.962 153.441 104.165 154.065 103.31 154.39C102.521 154.691 101.684 154.734 100.788 154.477C100.124 154.286 99.638 153.91 99.3264 153.399C98.9903 152.849 98.8565 152.148 98.9074 151.364C99.0116 149.766 99.8823 147.832 101.447 146.083C103.527 143.83 105.776 141.738 108.173 139.824L108.624 139.468L108.851 138.838L109.536 136.842L109.726 136.301L110.172 134.823L108.575 136.663C107.765 137.559 106.102 139.181 103.588 138.918L103.436 138.9L103.09 138.843L102.799 138.775C101.869 138.534 101.233 138.098 100.814 137.565C100.282 136.89 100.093 136.066 100.066 135.305C100.059 135.104 100.063 134.902 100.08 134.702C99.9624 134.862 99.8391 135.025 99.7089 135.188C97.4078 138.086 95.037 138.947 93.4688 138.908C92.4018 138.881 91.4781 138.442 91.0019 137.588C90.5925 136.853 90.5184 135.824 90.9306 134.516L90.9782 134.37L91.7072 132.251C92.3725 130.34 93.3062 127.697 94.2795 124.949L94.4962 124.337L94.6052 124.03L94.8851 123.24L95.0718 122.714L95.5509 121.362C96.7453 117.993 97.8496 114.88 98.4308 113.209L98.47 113.097L98.6563 112.457C98.867 111.698 98.9915 111.08 98.9947 110.607C98.9979 110.173 98.8978 109.854 98.6975 109.637C99.2919 109.235 99.9032 109.034 100.496 109.004L100.622 109ZM108.339 140.93L107.102 141.954L106.999 142.042C105.142 143.62 101.448 147.004 100.294 149.787C99.9901 150.52 99.8907 151.176 99.9941 151.654C100.051 151.917 100.167 152.13 100.339 152.286C100.504 152.435 100.722 152.533 100.998 152.56C101.517 152.612 102.045 152.426 102.578 152.013C103.103 151.606 103.637 150.976 104.177 150.155C105.372 148.335 106.607 145.567 107.89 142.257L108.339 140.93ZM43.4793 109.088C44.8412 108.943 46.1686 109.248 46.914 110.24C47.5312 111.062 47.7371 112.342 47.2781 114.177L47.039 114.92C46.6512 116.079 45.8477 118.411 44.9161 121.086L43.4853 125.171C46.2467 124.6 50.3374 122.502 53.696 120.052C56.5815 117.947 58.9147 115.578 59.4486 113.699C59.6116 113.637 59.6857 113.671 59.7775 113.734C60.0106 113.892 60.166 114.169 60.2485 114.494C60.3394 114.852 60.3398 115.268 60.2413 115.669C59.3993 119.071 53.0844 123.882 47.6374 126.306L47.8965 126.984C48.7425 129.137 50.8025 133.767 52.3506 136.701C54.2287 140.277 56.2206 141.925 59.2932 142.109C60.9406 142.208 62.6894 141.602 63.6972 140.723C62.699 142.544 60.7564 143.659 58.6315 143.793C55.4231 144.013 53.1416 143.097 51.1205 140.861C48.7689 138.26 46.7674 133.901 44.0898 127.516L42.4383 128.117L40.0583 134.726C39.54 136.323 39.2612 137.566 39.1955 138.478C39.1246 139.457 39.3085 140.063 39.6573 140.371C38.8735 140.774 38.1677 140.827 37.5497 140.698C36.9641 140.575 36.4578 140.289 36.0993 139.834C35.4528 139.015 35.2942 137.671 35.9215 135.826L43.545 113.855C43.7893 113.102 43.8434 112.482 43.7465 112.02C43.6908 111.756 43.5867 111.541 43.4425 111.375C43.2906 111.2 43.089 111.076 42.8645 111.019C41.8283 110.74 40.4152 111.128 38.9351 112.024C37.4828 112.905 35.9651 114.267 34.6946 115.911C32.6318 118.581 31.2259 121.988 31.7754 125.27C31.8696 125.831 32.0883 126.288 32.3442 126.624C32.615 126.979 32.9286 127.193 33.1917 127.272C33.1569 127.622 32.9987 127.892 32.7672 128.066C32.4756 128.284 32.0754 128.347 31.6841 128.239C31.1966 128.131 30.8526 127.854 30.6066 127.521C30.2381 127.022 30.0859 126.397 30.0463 125.997C29.7006 122.364 31.3228 118.376 33.8627 115.18C36.4662 111.904 40.0407 109.452 43.4793 109.088ZM71.976 122.132C72.4719 122.124 72.9522 122.233 73.317 122.511C73.6135 122.737 73.8297 123.075 73.9179 123.544C74.0008 123.988 73.9707 124.544 73.7941 125.223L73.716 125.5L70.5974 134.626C70.4131 135.15 70.3879 135.685 70.4984 136.111C70.6186 136.574 70.8954 136.906 71.2855 137.014C72.238 137.28 73.3307 136.781 74.3557 135.821C75.4792 134.769 76.5186 133.179 77.1819 131.599L77.6173 130.532C77.9381 129.723 78.2456 128.908 78.5397 128.089L79.0484 126.636C79.6072 124.995 79.9925 123.535 79.6693 122.8C80.1483 122.499 80.9526 122.206 81.7481 122.224C82.2239 122.234 82.7002 122.355 83.0547 122.707C83.3863 123.033 83.5321 123.46 83.5305 123.998C83.5285 124.614 83.3371 125.369 82.9962 126.281L82.403 127.821L83.5081 126.437C84.9244 124.69 86.1829 123.535 87.3245 122.901C88.4692 122.265 89.4906 122.161 90.4287 122.523L90.6149 122.602C91.2033 122.872 91.5722 123.332 91.7445 123.874C91.9391 124.487 91.8879 125.202 91.6307 125.878C91.3694 126.563 90.9206 127.162 90.3354 127.605C89.7677 128.033 89.0904 128.292 88.3815 128.352C88.6058 127.811 88.7196 127.107 88.5265 126.55C88.4396 126.299 88.2922 126.077 88.0763 125.913C87.8856 125.768 87.6401 125.667 87.3313 125.636C86.0191 125.505 84.0841 126.991 82.6986 128.9C81.4954 130.533 80.2529 133.308 79.0064 137.097C78.7536 137.871 78.7945 138.202 78.8502 138.351C78.7564 138.492 78.5465 138.611 78.2998 138.708C77.9286 138.851 77.5342 138.925 77.1362 138.926C76.3335 138.923 75.7536 138.703 75.4187 138.282C75.073 137.847 74.9977 137.213 75.1624 136.44C75.228 136.134 75.319 135.863 75.4355 135.631C75.2389 135.845 75.036 136.053 74.8271 136.256C72.8456 138.176 70.8493 139.122 69.0813 138.959C68.7095 138.926 68.3496 138.811 68.0266 138.625C67.7036 138.439 67.4252 138.184 67.2108 137.88C66.9928 137.571 66.8429 137.22 66.7711 136.85C66.6993 136.479 66.7072 136.098 66.7942 135.731L67.0053 134.836L66.4405 135.563C64.9128 137.529 62.6514 139.139 60.337 138.919C59.1594 138.808 58.2065 138.336 57.6802 137.422C57.1976 136.585 57.0746 135.391 57.4247 133.802C57.9998 131.225 58.9347 128.566 59.61 126.646L59.8512 125.958C60.1412 125.124 60.3142 124.435 60.3699 123.905C60.4259 123.373 60.3574 122.996 60.2 122.763C61.2575 122.115 62.5408 122.056 63.3683 122.541C63.7036 122.736 63.9607 123.024 64.0777 123.411C64.1858 123.77 64.1746 124.209 64.0116 124.731L63.68 125.766C63.491 126.343 63.2987 126.919 63.1032 127.494L62.9934 127.817C62.6257 128.894 62.2508 129.97 61.9356 130.875C61.5899 131.867 61.3155 132.653 61.2006 133.014C60.7968 134.285 60.7111 135.276 60.8549 135.97C60.939 136.376 61.1017 136.686 61.322 136.902C61.5559 137.133 61.8563 137.262 62.2112 137.282C63.3407 137.346 64.8347 136.328 65.9631 134.688L66.1581 134.393C67.7118 132.131 68.6095 129.415 69.3553 127.152C69.4874 126.751 69.6152 126.363 69.7406 125.997L69.9048 125.525C70.1359 124.881 70.4548 123.435 70.1367 122.8C70.1836 122.671 70.2465 122.624 70.321 122.582C70.8281 122.302 71.396 122.147 71.976 122.132Z" fill="#D9D9D9" stroke="#D9D9D9" stroke-opacity="0.05"/>
</svg>
