<svg xmlns="http://www.w3.org/2000/svg" width="156" height="120" viewBox="0 0 156 120">
    <g fill="none">
        <path d="M0 0H156V120H0z"/>
        <path fill="#5F0080" d="M152.837 83.597c-2.05-.87-5.506-.699-9.366 1.62v-.049s6.913-18.278 7.14-18.885c.874-2.331.642-4.19-.196-5.326-.66-.861-1.689-1.358-2.772-1.337-1.101.004-2.185.278-3.156.797-.29.188-.435.533-.367.872-.05 1.335-.301 2.655-.747 3.914-1.285 3.681-2.906 7.308-3.34 8.27-.954 2.167-3.61 7.492-7.048 10.345-1.596 1.332-3.058 2.056-4.355 2.062-1.915 0-2.068-2.988-.79-6.136 0 0 5.066-12.755 5.17-13.032 2.447-6.411-2.019-8.454-6.307-6.276-.257.135-.545.399-.343.613.612.614.312 2.4-.68 5.363 0 0-2.807 7.516-4.997 12.056-3.891 8.105-10.443 8.338-7.61.289.685-1.976 12.063-32.82 12.063-32.82 1.28-3.65 1.683-5.97 0-7.534-1.682-1.564-4.404-1.258-6.344-.202-.28.153-.611.46-.379.656.912.749.57 2.645-.349 5.639-2.447 6.957-10.846 30.144-12.847 36.034-1.798 5.264.906 8.043 4.589 8.135 2.753.068 6.93-1.392 10.98-6.43.093 2.54 1.224 5.461 5.464 6.314 5.359 1.043 8.73-2.67 10.076-4.185.403-.454 1.01-1.16 1.346-1.54l-.3.982c-.57 1.577-.973 2.816-1.5 4.295-.11.307-.225.613-.354.97-4.381 3.394-8.485 7.134-12.272 11.184-5.47 6.038-6.056 13.333-.973 14.775 7.586 2.153 12.847-7.553 17.803-20.861l2.019-5.326.275-.73c6.79-4.59 11.373-.337 11.55 2.037 0 .331.49.38.685.172 1.988-2.123 1.052-5.522-1.774-6.75l.006.025zm-18.298 9.486c-4.19 10.798-8.069 18.407-11.776 18.038-1.634-.16-1.878-1.963-.924-4.233 2.319-5.522 10.681-12.443 12.768-14.112l-.068.307zM105.058 60.393c-3.499-1.577-7.647.368-13.104 7.221 1.37-3.417 1.615-5.638.239-6.976-1.731-1.693-4.986-.613-5.94-.129-.337.178-.563.344-.422.663.611 1.374-.38 4.295-1.48 7.412-.417 1.184-1.5 4.197-2.79 7.234-2.087 4.908-6.381 9.89-9.703 8.976-1.138-.313-1.523-1.994-.948-3.608l5.353-15.474c2-6.534-3.353-6.982-6.32-5.337-.391.214-.691.472-.52.705.649.92.037 3.4-.349 4.46-1.505 4.167-3.058 10.161-6.386 14.947-1.872 2.926-4.49 4.86-6.467 4.749-1.976-.11-2.82-2.455-1.425-6.792.556-1.724 3.303-9.24 4.82-14.032 1.444-4.559-3.67-5.645-6.864-3.964-.263.141-.562.399-.367.614.612.65.416 2.454-.556 5.215-1.163 3.295-3.06 8.4-4.173 13.326-1.32 5.921 1.224 8.7 5.298 9.08 4.075.381 8.076-2.386 10.774-5.816-.324 1.355-.044 2.784.768 3.914.812 1.13 2.075 1.85 3.459 1.97 3.108.283 6.631-1.331 10.125-4.675-.612 2.828.648 4.608 3.72 4.62 1.504 0 3.058-.613 3.327-1.129.03-.056.03-.122 0-.178-.061-.104-.306-.472.208-2.025 2.123-6.374 4.233-11.043 6.283-13.792 2.282-3.105 5.457-5.608 7.635-5.393 2.178.214 2.251 2.687 1.505 3.834-.374.534-.08.804.3.773 6.166-.503 8.503-8.356 3.994-10.387M57.708 34.495l4.22-.743 1.304 2.087 2.294-.4-6.032-9.337-2.025.355-2.52 10.836 2.239-.393.52-2.405zm1.223-5.565l1.897 3.019-2.655.46.758-3.479zM72.672 24.917c1.064-.09 2.12.248 2.936.94.61.606.949 1.433.942 2.294v.03c.112 1.417-.735 2.733-2.068 3.215l2.588 3.553-2.606.08-2.276-3.179-1.7.056.104 3.252-2.227.06-.325-10.153zm-.123 2.025l-2.196.074.067 2.89 2.258-.074c1.052-.03 1.664-.632 1.664-1.491l-.011-.155c-.097-.85-.76-1.244-1.782-1.244zM82.766 32.249L84.063 31.157 86.736 35.789 89.397 36.072 85.72 29.801 90.272 25.942 87.592 25.66 83.041 29.648 83.5 25.23 81.285 24.997 80.227 35.102 82.441 35.335zM100.072 36.538L94.726 35.237 95.227 33.163 99.871 34.292 100.336 32.36 95.698 31.231 96.182 29.224 101.455 30.507 101.92 28.574 94.493 26.764 92.107 36.642 99.601 38.471zM105.309 40.489L107.389 41.287 110.271 33.716 113.244 34.857 113.972 32.924 105.97 29.863 105.242 31.789 108.191 32.918zM44.432 40.594L42.334 34.348 46.256 37.415 46.476 37.342 47.754 32.464 49.865 38.753 51.963 38.047 48.727 28.415 46.451 29.182 45.295 34.108 41.398 30.893 39.122 31.66 42.365 41.293z"/>
        <path fill="#5F0080" d="M58.858 90.837c-1.597 1.608-4.717 2.75-7.641 2.577-5.157-.307-8.48-3.067-11.624-8.982-2.881-5.393-6.796-14.173-7.953-17.278 9.385-4.196 20.072-12.357 21.516-18.118.361-1.448 0-3.012-.936-3.638-.52-.35-.844-.24-1.07.067-1.836 6.663-17.668 16.996-26.539 19.125 3.06-8.59 6.118-17.346 6.308-18.07 1.835-7.227-2.386-9.522-6.883-9.05C12.236 38.705-.526 53.86.691 66.486c.123 1.228.845 3.608 3.06 4.093 1.5.41 3.05-.46 3.486-1.957.018-.083-.006-.17-.066-.23-.059-.06-.144-.087-.227-.071-.753.16-2.246-1.03-2.607-3.154C2.27 52.963 16.695 39.746 22.93 41.403c1.303.344 1.737 1.92.93 4.375-2.313 6.534-10.877 30.93-13.074 37.218-2.447 7.105 1.952 9.934 6.73 8.424.477-.153.612-.613.336-.785-1.223-.86-1.107-3.841.68-9.283.11-.344 3.884-10.688 4.025-11.044.844-.307 1.682-.614 2.373-.853 8.565 20.15 13.16 28.297 25.156 27.487 3.819-.24 7.308-2.249 9.44-5.436.275-.466-.325-1-.692-.613"/>
    </g>
</svg>
