<svg width="58" height="30" viewBox="0 0 58 30" fill="none" xmlns="http://www.w3.org/2000/svg">
<path fill-rule="evenodd" clip-rule="evenodd" d="M44.2077 0.828823C44.9331 0.435219 45.9515 0.320799 46.5808 0.90434C47.177 1.45717 47.0728 2.26262 46.6535 3.5036L46.5247 3.86618C46.022 5.22484 42.307 15.2682 42.0681 15.9551C41.0085 18.9575 43.4594 18.8705 44.9148 15.8476L45.158 15.3283C45.9275 13.6378 46.7845 11.3509 46.7845 11.3509L46.9112 10.957C47.1779 10.0859 47.2387 9.55105 47.0385 9.35081C46.9629 9.27072 47.0705 9.17232 47.1666 9.12197C48.7307 8.3299 50.3578 9.03451 49.5898 11.2867L49.4692 11.6069L47.5923 16.3236C47.114 17.4975 47.1712 18.612 47.8875 18.612C48.3726 18.6097 48.9195 18.3396 49.5168 17.8431C50.66 16.8972 51.5717 15.2226 52.0109 14.2948L52.379 13.4764C52.6427 12.8726 53.0554 11.8917 53.4025 10.9001C53.5691 10.4304 53.6632 9.93807 53.6817 9.44006C53.6564 9.31382 53.7108 9.18496 53.819 9.11511C54.1825 8.92132 54.5878 8.8192 54.9998 8.81762C55.4049 8.81001 55.7896 8.99514 56.0364 9.31649C56.3276 9.7096 56.4233 10.3355 56.1735 11.1192L56.0994 11.33L53.4391 18.3465V18.3648C54.8071 17.5453 56.0395 17.4447 56.8173 17.7127L56.9426 17.7607L56.9404 17.7515C57.9976 18.2092 58.3477 19.477 57.604 20.2688C57.5308 20.3466 57.3477 20.3282 57.3477 20.2047C57.2829 19.3407 55.6499 17.8102 53.2116 19.3255L53.0272 19.4449L51.9546 22.2702C50.1628 26.939 48.2383 30.2565 45.5098 29.4841C43.6082 28.9464 43.8278 26.2254 45.8737 23.9737C47.2902 22.4629 48.8252 21.0679 50.4642 19.8019L50.5969 19.4404L51.0364 18.178L51.1576 17.8385L51.2697 17.4723L50.6366 18.1905C50.0883 18.7885 48.948 19.8714 47.2253 19.6446L46.9973 19.6074L46.805 19.5637C45.3768 19.1988 44.9866 18.1606 44.9537 17.2526C43.4388 19.1314 41.8758 19.6761 40.8461 19.6509C39.4684 19.6166 38.457 18.5799 39.1298 16.6165L39.5976 15.2767C40.75 12.0182 43.154 5.392 43.9354 3.17672L44.0535 2.77718C44.3034 1.88989 44.3642 1.31797 44.0658 1.07368C43.9789 1.00045 44.1024 0.886033 44.2077 0.828823ZM50.098 21.2985L50.1232 21.1841L49.6784 21.547C48.5229 22.5087 46.095 24.6719 45.3473 26.4474C44.9903 27.2941 45.0819 27.9669 45.6929 28.0264C47.045 28.1603 48.458 25.4661 49.9807 21.5983L50.098 21.2985ZM8.76274 0.556504C10.4447 0.380298 12.0237 1.23616 11.3372 3.93189L11.182 4.4067C10.9332 5.13968 10.4176 6.61371 9.81923 8.30459L8.97785 10.6712C12.296 9.87714 18.2184 6.02348 18.9049 3.53828C18.9896 3.42386 19.1109 3.38267 19.3054 3.51311C19.6555 3.74653 19.7905 4.33007 19.6555 4.87013C19.1154 7.01894 15.1176 10.0625 11.6072 11.6278L11.7301 11.9446C12.2716 13.3016 13.5905 16.2213 14.5821 18.0719C15.7584 20.2779 17.001 21.3077 18.9301 21.4221C19.951 21.4819 21.0357 21.1151 21.6614 20.5785L21.7883 20.461L21.7791 20.4816C21.9164 20.3374 22.1407 20.5365 22.0377 20.7104C21.2405 21.899 19.9352 22.6486 18.5067 22.7379C14.0192 23.04 12.3006 20.001 9.09685 12.4859L8.20895 12.804L6.70319 16.9231C6.03498 18.9529 5.9915 20.0651 6.44918 20.3855C6.55215 20.4495 6.50181 20.6212 6.32331 20.6784C4.53608 21.2413 2.89072 20.1864 3.80608 17.5364L8.69638 3.65499C8.99845 2.73963 8.83597 2.15152 8.34854 2.02337C6.01667 1.4055 0.620629 6.33471 1.39411 10.8863C1.52012 11.6253 2.01492 12.0613 2.30919 12.0678L2.36896 12.0626C2.4 12.0564 2.43204 12.0663 2.45418 12.0889C2.47632 12.1115 2.48558 12.1438 2.47881 12.1747C2.31584 12.733 1.73554 13.0578 1.17442 12.9047C0.346022 12.7239 0.0759911 11.836 0.0302232 11.3783C-0.425168 6.66881 4.34843 1.01647 8.76274 0.556504ZM25.9349 9.09909C27.017 8.50113 28.9475 8.64499 28.3498 10.9114L28.2988 11.09L26.2964 16.8613C26.0813 17.4632 26.2255 18.0902 26.6511 18.2069C27.8937 18.5479 29.5002 16.6897 30.2805 14.859L30.5595 14.1858C30.7968 13.598 31.0022 13.051 31.1496 12.647L31.4755 11.7294C31.8193 10.7351 32.0781 9.84511 31.8778 9.39658C31.8252 9.27758 31.9099 9.2158 32.0357 9.14943C32.3927 8.96865 33.6101 8.56589 34.2578 9.19749C34.744 9.66864 34.6894 10.4337 34.25 11.5911L34.1685 11.7994L34.3585 11.5651C36.2437 9.27552 37.7052 8.58076 38.9468 9.05468L39.0703 9.10595C40.7545 9.8657 39.8804 12.7948 37.5737 12.9825C37.4475 12.9927 37.3467 12.9142 37.4239 12.7569L37.4615 12.6942C37.7407 12.2662 37.7132 11.344 36.8986 11.2639C36.0839 11.1838 34.8962 12.1175 34.0427 13.2754C33.276 14.3006 32.4865 16.0421 31.6925 18.4197C31.5003 18.9987 31.5918 19.136 31.6147 19.1749C31.6257 19.1957 31.6257 19.2205 31.6147 19.2413C31.514 19.4335 30.9327 19.6623 30.3698 19.6623C29.221 19.6577 28.7496 18.9941 28.9784 17.9392C27.6718 19.1863 26.3536 19.7882 25.1911 19.6829C24.6735 19.638 24.2012 19.3697 23.8974 18.9481C23.5937 18.5266 23.4887 17.9936 23.6099 17.4883C22.6007 18.7676 21.1041 19.7996 19.58 19.6577C18.0559 19.5159 17.1039 18.4792 17.5982 16.2709C18.0147 14.4333 18.7241 12.5294 19.1589 11.3005C19.5228 10.2707 19.596 9.59796 19.3672 9.35539C19.2939 9.27529 19.4061 9.17918 19.5045 9.12655C20.699 8.49953 22.6121 8.90457 22.0721 10.6049L21.8592 11.2592C21.2783 13.0102 20.453 15.2696 20.2688 15.8384C19.747 17.4563 20.0628 18.3305 20.802 18.3717C21.4977 18.4104 22.4062 17.7742 23.0945 16.7892L23.2208 16.6005C24.3879 14.9271 24.9717 12.8574 25.504 11.325L25.6099 11.0259C25.7541 10.63 25.9829 9.70551 25.7404 9.36225C25.6763 9.27529 25.7884 9.17918 25.9349 9.09909Z" fill="#5F0080"/>
</svg>
