<svg width="78" height="40" viewBox="0 0 78 40" fill="none" xmlns="http://www.w3.org/2000/svg">
<path fill-rule="evenodd" clip-rule="evenodd" d="M58.9436 1.10492C59.9108 0.580119 61.2686 0.42756 62.1077 1.20561C62.9026 1.94272 62.7637 3.01665 62.2047 4.67129L62.0329 5.15473C61.3627 6.96627 56.4093 20.3574 56.0907 21.2733C54.678 25.2765 57.9459 25.1605 59.8864 21.1299L60.2107 20.4376C61.2367 18.1836 62.3793 15.1343 62.3793 15.1343L62.5482 14.6091C62.9038 13.4477 62.9849 12.7346 62.7179 12.4676C62.6172 12.3608 62.7607 12.2296 62.8888 12.1625C64.9742 11.1064 67.1437 12.0458 66.1197 15.0488L65.9589 15.4757L63.4563 21.7646C62.8186 23.3298 62.8949 24.8158 63.8499 24.8158C64.4968 24.8127 65.226 24.4527 66.0224 23.7906C67.5466 22.5294 68.7623 20.2967 69.3479 19.0596L69.8386 17.9683C70.1902 17.1633 70.7405 15.8554 71.2033 14.5332C71.4254 13.907 71.551 13.2506 71.5756 12.5866C71.5418 12.4183 71.6144 12.2464 71.7586 12.1533C72.2433 11.8949 72.7838 11.7588 73.333 11.7566C73.8732 11.7465 74.3861 11.9933 74.7152 12.4218C75.1034 12.946 75.2311 13.7806 74.898 14.8254L74.7992 15.1065L71.2521 24.4618V24.4862C73.0761 23.3936 74.7193 23.2594 75.7564 23.6167L75.9235 23.6807L75.9205 23.6685C77.3301 24.2787 77.7969 25.9691 76.8053 27.0248C76.7077 27.1286 76.4636 27.1042 76.4636 26.9394C76.3772 25.7874 74.1999 23.7467 70.9487 25.7672L70.7029 25.9264L69.2728 29.6934C66.8837 35.9185 64.3177 40.3418 60.6797 39.312C58.1442 38.595 58.4371 34.9671 61.1649 31.9647C63.0535 29.9504 65.1003 28.0903 67.2856 26.4024L67.4625 25.9203L68.0486 24.2371L68.2101 23.7845L68.3596 23.2963L67.5155 24.2538C66.7843 25.0511 65.264 26.495 62.967 26.1926L62.663 26.143L62.4067 26.0847C60.5024 25.5982 59.9822 24.2139 59.9383 23.0033C57.9184 25.5084 55.8344 26.2346 54.4614 26.201C52.6246 26.1552 51.276 24.773 52.173 22.1551L52.7968 20.3688C54.3333 16.024 57.5386 7.18916 58.5805 4.23545L58.738 3.70273C59.0711 2.51968 59.1522 1.75712 58.7544 1.4314C58.6385 1.33376 58.8032 1.1812 58.9436 1.10492ZM66.7974 28.3979L66.8309 28.2453L66.2379 28.7291C64.6972 30.0114 61.46 32.8957 60.4631 35.2631C59.9871 36.392 60.1092 37.289 60.9238 37.3684C62.7266 37.5469 64.6106 33.9547 66.6409 28.7976L66.7974 28.3979ZM11.6837 0.741833C13.9263 0.506891 16.0316 1.64804 15.1162 5.24234L14.9093 5.87542C14.5776 6.85273 13.8902 8.81811 13.0923 11.0726L11.9705 14.2281C16.3947 13.1693 24.2912 8.03114 25.2066 4.71754C25.3194 4.56498 25.4812 4.51006 25.7405 4.68398C26.2073 4.9952 26.3874 5.77325 26.2073 6.49333C25.4873 9.35841 20.1568 13.4165 15.4763 15.5035L15.6401 15.9259C16.3621 17.7352 18.1207 21.6282 19.4428 24.0957C21.0112 27.037 22.668 28.4101 25.2401 28.5626C26.6014 28.6424 28.0476 28.1533 28.8819 27.4378L29.0511 27.2811L29.0388 27.3086C29.2219 27.1164 29.5209 27.3818 29.3836 27.6137C28.3207 29.1985 26.5802 30.1979 24.6756 30.3171C18.6922 30.7198 16.4008 26.6678 12.1291 16.6477L10.9453 17.0718L8.93758 22.564C8.04663 25.2704 7.98866 26.7533 8.5989 27.1804C8.7362 27.2659 8.66908 27.4947 8.43108 27.571C6.0481 28.3216 3.85429 26.915 5.07477 23.3817L11.5952 4.87315C11.9979 3.65267 11.7813 2.86852 11.1314 2.69765C8.02222 1.87383 0.827506 8.4461 1.85881 14.5149C2.02683 15.5003 2.68656 16.0816 3.07891 16.0902L3.15862 16.0832C3.2 16.0751 3.24272 16.0883 3.27224 16.1184C3.30176 16.1486 3.31411 16.1915 3.30508 16.2327C3.08779 16.9772 2.31405 17.4102 1.56589 17.2061C0.461362 16.965 0.101321 15.7812 0.0402976 15.1709C-0.56689 8.89157 5.7979 1.35512 11.6837 0.741833ZM34.5798 12.1319C36.0227 11.3347 38.5967 11.5265 37.7997 14.5484L37.7317 14.7865L35.0619 22.4816C34.7751 23.2841 34.9673 24.1201 35.5348 24.2757C37.1916 24.7303 39.3336 22.2528 40.374 19.8118L40.746 18.9142C41.0624 18.1305 41.3362 17.4012 41.5328 16.8625L41.9673 15.6391C42.4257 14.3134 42.7708 13.1266 42.5038 12.5286C42.4336 12.3699 42.5465 12.2876 42.7143 12.1991C43.1903 11.958 44.8135 11.421 45.677 12.2631C46.3254 12.8913 46.2525 13.9115 45.6667 15.4546L45.558 15.7324L45.8113 15.42C48.3249 12.3672 50.2736 11.4408 51.9291 12.0727L52.0937 12.1411C54.3394 13.1541 53.1738 17.0596 50.0982 17.3098C49.93 17.3234 49.7956 17.2188 49.8986 17.009L49.9487 16.9254C50.3209 16.3548 50.2843 15.1252 49.1981 15.0184C48.1119 14.9116 46.5283 16.1565 45.3902 17.7004C44.3681 19.0673 43.3154 21.3893 42.2566 24.5595C42.0003 25.3314 42.1224 25.5145 42.1529 25.5664C42.1675 25.594 42.1675 25.6272 42.1529 25.6548C42.0186 25.9111 41.2436 26.2163 40.493 26.2163C38.9613 26.2102 38.3328 25.3253 38.6379 23.9187C36.8957 25.5816 35.1382 26.3841 33.5882 26.2437C32.898 26.1838 32.2682 25.8261 31.8632 25.264C31.4582 24.7019 31.3182 23.9913 31.4798 23.3176C30.1342 25.0232 28.1387 26.3993 26.1067 26.2102C24.0746 26.021 22.8053 24.6388 23.4643 21.6944C24.0196 19.2443 24.9655 16.7057 25.5452 15.0672C26.0304 13.6942 26.128 12.7971 25.8229 12.4737C25.7253 12.3669 25.8748 12.2387 26.006 12.1686C27.5987 11.3325 30.1495 11.8726 29.4294 14.1396L29.1456 15.0121C28.3711 17.3468 27.2707 20.3593 27.0251 21.1177C26.3294 23.2749 26.7505 24.4405 27.736 24.4954C28.6636 24.5471 29.8749 23.6987 30.7926 22.3854L30.9611 22.1338C32.5172 19.9026 33.2956 17.1431 34.0053 15.0998L34.1465 14.701C34.3388 14.1732 34.6439 12.9405 34.3205 12.4828C34.235 12.3669 34.3845 12.2387 34.5798 12.1319Z" fill="#5F0080"/>
</svg>
