<svg width="18" height="18" xmlns="http://www.w3.org/2000/svg">
    <path d="M3.648 11.965a19.158 19.158 0 0 0 6.376 4.976c.932.44 2.179.962 3.568 1.052.086.003.168.007.254.007.932 0 1.681-.32 2.291-.98.004-.005.012-.012.015-.02.218-.26.465-.496.723-.746.176-.167.356-.343.528-.522.797-.828.797-1.88-.008-2.681l-2.25-2.242c-.382-.395-.838-.604-1.318-.604-.479 0-.94.209-1.332.6l-1.34 1.335a7.132 7.132 0 0 0-.371-.193 4.635 4.635 0 0 1-.412-.224c-1.22-.772-2.329-1.78-3.389-3.074-.535-.675-.894-1.242-1.145-1.82.352-.317.681-.649 1-.973.112-.116.228-.231.344-.347.404-.403.621-.87.621-1.343 0-.474-.213-.94-.621-1.343L6.066 1.712c-.13-.13-.254-.257-.382-.388a20.498 20.498 0 0 0-.76-.75C4.54.198 4.086 0 3.606 0c-.475 0-.932.198-1.332.578l-1.4 1.395a2.862 2.862 0 0 0-.858 1.835c-.071.892.094 1.839.52 2.984.656 1.772 1.644 3.416 3.112 5.173z" fill="#5F0080" fill-rule="evenodd"/>
</svg>
