<svg width="11" height="11" viewBox="0 0 11 11" fill="none" xmlns="http://www.w3.org/2000/svg">
<path d="M8.69811 6.81411C8.47258 6.57962 8.20056 6.45426 7.91226 6.45426C7.62628 6.45426 7.35193 6.5773 7.11711 6.81179L6.38241 7.5431C6.32196 7.5106 6.26151 7.48041 6.20338 7.45023C6.11968 7.40844 6.04063 7.36898 5.9732 7.32719C5.285 6.89072 4.65958 6.32192 4.05973 5.58597C3.7691 5.21915 3.5738 4.91037 3.43197 4.59696C3.62262 4.42283 3.79932 4.24175 3.97138 4.06762C4.03648 4.00262 4.10158 3.93529 4.16668 3.87029C4.65493 3.38274 4.65493 2.75126 4.16668 2.26372L3.53195 1.62992C3.45987 1.55795 3.38547 1.48365 3.31572 1.40936C3.17622 1.26542 3.02975 1.11684 2.87862 0.97754C2.6531 0.754664 2.3834 0.636261 2.09975 0.636261C1.8161 0.636261 1.54175 0.754664 1.30924 0.97754C1.30692 0.979862 1.30692 0.979862 1.30459 0.982183L0.514093 1.7785C0.216492 2.07567 0.0467671 2.43784 0.00956705 2.85806C-0.0462331 3.53597 0.153717 4.16745 0.307168 4.5807C0.683818 5.59525 1.24647 6.53551 2.0858 7.5431C3.10415 8.75731 4.32943 9.71614 5.72908 10.3917C6.26383 10.6448 6.97761 10.9443 7.77508 10.9954C7.82391 10.9977 7.87506 11 7.92156 11C8.45864 11 8.90969 10.8073 9.26309 10.4242C9.26541 10.4196 9.27006 10.4173 9.27239 10.4126C9.39329 10.2664 9.53279 10.134 9.67926 9.99241C9.77924 9.89723 9.88154 9.7974 9.98151 9.69292C10.2117 9.4538 10.3326 9.1752 10.3326 8.88964C10.3326 8.60176 10.2094 8.32549 9.97454 8.09332L8.69811 6.81411Z" fill="#333333"/>
</svg>
