<?xml version="1.0" encoding="UTF-8"?>
<svg width="18px" height="22px" viewBox="0 0 18 22" version="1.1" xmlns="http://www.w3.org/2000/svg" xmlns:xlink="http://www.w3.org/1999/xlink">
    <title>navi / navi_location copy</title>
    <g id="navi-/-navi_location-copy" stroke="none" stroke-width="1" fill="none" fill-rule="evenodd">
        <path d="M8.95536054,0.75 C13.4858721,0.75 17.1602707,4.4051497 17.25,8.98813183 C17.25,11.8076103 15.8649048,14.7057423 13.2926313,17.5569652 C12.4933416,18.4429336 11.6132417,19.2845202 10.6758167,20.0688368 L10.3641344,20.3256142 L10.0505583,20.575827 L9.51841482,20.9812592 L9.31537414,21.1226214 L9.25204145,21.1574 C9.01684798,21.2865546 8.73358612,21.2790428 8.50774615,21.1446947 L8.41478077,21.0793801 L7.48243476,20.3129341 C7.40470205,20.2476956 7.33472976,20.1883138 7.27279672,20.1349573 C6.32439624,19.3178914 5.45362149,18.4676462 4.66015519,17.5740473 C2.11385017,14.706408 0.75,11.8381873 0.75,9.06157013 C0.75,4.4415221 4.38907156,0.75 8.95536054,0.75 Z M8.95536054,2.25 C5.22234155,2.25 2.25,5.2651824 2.25,9.06157013 C2.25,11.4202693 3.45831936,13.9614037 5.78179491,16.5780934 C6.52934192,17.4199781 7.35248487,18.2237145 8.25184814,18.9985338 L8.44083683,19.1590681 L8.918,19.552 L9.1325729,19.3895807 L9.42046367,19.1596841 L9.71327564,18.9183956 C10.598308,18.1779145 11.4278457,17.3846775 12.1788898,16.5521867 C14.5234893,13.9533278 15.749864,11.3870018 15.7501442,9.00279433 C15.6764839,5.24662003 12.6640829,2.25 8.95536054,2.25 Z M9,5.75 C10.7949254,5.75 12.25,7.20507456 12.25,9 C12.25,10.7949254 10.7949254,12.25 9,12.25 C7.20507456,12.25 5.75,10.7949254 5.75,9 C5.75,7.20507456 7.20507456,5.75 9,5.75 Z M9,7.25 C8.03350169,7.25 7.25,8.03350169 7.25,9 C7.25,9.96649831 8.03350169,10.75 9,10.75 C9.96649831,10.75 10.75,9.96649831 10.75,9 C10.75,8.03350169 9.96649831,7.25 9,7.25 Z" id="Combined-Shape" fill="#FFFFFF" fill-rule="nonzero"></path>
    </g>
</svg>