<svg width="60" height="60" viewBox="0 0 60 60" xmlns="http://www.w3.org/2000/svg">
    <g fill="none" fill-rule="evenodd">
        <path d="M0 0h60v60H0z"/>
        <g transform="translate(6 7)" stroke="#333" stroke-width="1.8">
            <path d="M32.168 0c2.486 0 4.502 2.108 4.502 4.71a4.809 4.809 0 0 1-1.266 3.273 5.999 5.999 0 0 1-.28.004h-.247l-.148.001h-.252l-.06.003h-10.98l5.265-6.286c.053-.067.108-.133.165-.197l.06-.072C29.748.552 30.897 0 32.168 0z"/>
            <path d="M15.83 0c-2.485 0-4.5 2.108-4.5 4.71 0 1.271.481 2.426 1.265 3.273.002.002.103.003.28.004h.247l.148.001h.252l.06.003h10.98l-5.265-6.286a4.678 4.678 0 0 0-.165-.197l-.06-.072C18.25.552 17.102 0 15.83 0z"/>
            <rect y="8.018" width="48" height="11.127" rx="1"/>
            <path d="M24.004 6.973V47.34M3.5 19.145V45.65a1 1 0 0 0 1 1h27.668M44.5 19.5v11.238"/>
        </g>
        <g transform="translate(36.325 36.924)" stroke="#5F0080" stroke-width="1.8">
            <circle cx="11.464" cy="11.464" r="10.564"/>
            <path stroke-linecap="round" stroke-linejoin="round" d="m16.616 8.578-6.015 5.943-3.22-3.192"/>
        </g>
    </g>
</svg>
