<svg width="24" height="24" viewBox="0 0 24 24" fill="none" xmlns="http://www.w3.org/2000/svg">
<path fill-rule="evenodd" clip-rule="evenodd" d="M0.300781 2H4.40078C4.86194 2 5.2633 2.31536 5.3724 2.76343L5.79521 4.5H21.055C22.3344 4.5 23.2849 5.68482 23.0073 6.93384L21.2518 14.8342C21.0484 15.7493 20.2368 16.4004 19.2994 16.4004H8.10375C7.16634 16.4004 6.35471 15.7493 6.15137 14.8342L5.06773 9.9577L5.06573 9.95818L3.61505 4H0.300781V2ZM6.34817 6.5L8.10374 14.4004H19.2994L21.055 6.5H6.34817ZM9.30156 19.2002C8.91496 19.2002 8.60156 19.5136 8.60156 19.9002C8.60156 20.2868 8.91496 20.6002 9.30156 20.6002C9.68816 20.6002 10.0016 20.2868 10.0016 19.9002C10.0016 19.5136 9.68816 19.2002 9.30156 19.2002ZM6.60156 19.9002C6.60156 18.409 7.81039 17.2002 9.30156 17.2002C10.7927 17.2002 12.0016 18.409 12.0016 19.9002C12.0016 21.3914 10.7927 22.6002 9.30156 22.6002C7.81039 22.6002 6.60156 21.3914 6.60156 19.9002ZM18.1004 19.2002C17.7138 19.2002 17.4004 19.5136 17.4004 19.9002C17.4004 20.2868 17.7138 20.6002 18.1004 20.6002C18.487 20.6002 18.8004 20.2868 18.8004 19.9002C18.8004 19.5136 18.487 19.2002 18.1004 19.2002ZM15.4004 19.9002C15.4004 18.409 16.6092 17.2002 18.1004 17.2002C19.5916 17.2002 20.8004 18.409 20.8004 19.9002C20.8004 21.3914 19.5916 22.6002 18.1004 22.6002C16.6092 22.6002 15.4004 21.3914 15.4004 19.9002Z" fill="#222222"/>
</svg>
