<svg xmlns="http://www.w3.org/2000/svg" width="12" height="14" viewBox="0 0 12 14">
    <g fill="none" fill-rule="evenodd">
        <g fill="#333">
            <g>
                <g>
                    <g>
                        <g>
                            <path d="M11.043 12.575c0 .14-.115.257-.258.257H1.214c-.141 0-.258-.116-.258-.257V5.42c0-.142.117-.258.258-.258h9.57c.144 0 .26.116.26.258v7.155zM3.685 3.237c0-1.257 1.024-2.28 2.281-2.28 1.258 0 2.281 1.023 2.281 2.28v.968H3.685v-.968zm7.1.968h-1.58v-.968C9.204 1.453 7.751 0 5.965 0 4.181 0 2.73 1.453 2.73 3.237v.968H1.214C.544 4.205 0 4.75 0 5.42v7.155c0 .669.545 1.214 1.214 1.214h9.57c.671 0 1.216-.545 1.216-1.214V5.42c0-.67-.545-1.215-1.215-1.215z" transform="translate(-610 -863) translate(425 753) translate(0 60) translate(100 46) translate(85 4)"/>
                            <path d="M5 8.2c0 .343.184.632.448.812v1.33h1.103v-1.33C6.815 8.832 7 8.543 7 8.2c0-.552-.448-1-1-1-.553 0-1 .448-1 1z" transform="translate(-610 -863) translate(425 753) translate(0 60) translate(100 46) translate(85 4)"/>
                        </g>
                    </g>
                </g>
            </g>
        </g>
    </g>
</svg>
