<svg width="21" height="20" viewBox="0 0 21 20" xmlns="http://www.w3.org/2000/svg">
    <g fill="#FFF" fill-rule="evenodd">
        <path fill="none" d="M.55 0h20v20h-20z"/>
        <path d="M9.883 5.167c1.15 0 2.193.466 2.947 1.22a4.154 4.154 0 0 1 1.22 2.946c0 1.01-.359 1.935-.956 2.656l-.154.176 2.395 2.384-2.523-2.051c-.837.58-1.833 1.002-2.929 1.002a4.154 4.154 0 0 1-2.946-1.22 4.154 4.154 0 0 1-1.22-2.947c0-1.15.466-2.192 1.22-2.946a4.154 4.154 0 0 1 2.946-1.22zm0 .333c-1.058 0-2.017.43-2.71 1.123a3.821 3.821 0 0 0-1.123 2.71c0 1.059.43 2.017 1.123 2.71a3.821 3.821 0 0 0 2.71 1.124c1.059 0 2.017-.43 2.71-1.123a3.821 3.821 0 0 0 1.124-2.71c0-1.06-.43-2.018-1.123-2.711A3.821 3.821 0 0 0 9.884 5.5z" stroke="#979797" stroke-opacity=".05"/>
    </g>
</svg>
