<svg width="22" height="22" viewBox="0 0 22 22" fill="none" xmlns="http://www.w3.org/2000/svg">
<path fill-rule="evenodd" clip-rule="evenodd" d="M1.28431 0.588591L1.35355 0.646447L11 10.293L20.6464 0.646447C20.8417 0.451184 21.1583 0.451184 21.3536 0.646447C21.5271 0.820013 21.5464 1.08944 21.4114 1.28431L21.3536 1.35355L11.707 11L21.3536 20.6464C21.5488 20.8417 21.5488 21.1583 21.3536 21.3536C21.18 21.5271 20.9106 21.5464 20.7157 21.4114L20.6464 21.3536L11 11.707L1.35355 21.3536C1.15829 21.5488 0.841709 21.5488 0.646447 21.3536C0.47288 21.18 0.453595 20.9106 0.588591 20.7157L0.646447 20.6464L10.293 11L0.646447 1.35355C0.451184 1.15829 0.451184 0.841709 0.646447 0.646447C0.820013 0.47288 1.08944 0.453595 1.28431 0.588591Z" fill="#999999"/>
</svg>
