<?xml version="1.0" encoding="UTF-8"?>
<svg width="150px" height="195px" viewBox="0 0 150 195" version="1.1" xmlns="http://www.w3.org/2000/svg" xmlns:xlink="http://www.w3.org/1999/xlink">
    <title>thumnail_no_img</title>
    <g id="mWeb_Main" stroke="none" stroke-width="1" fill="none" fill-rule="evenodd">
        <g id="mWEB_Home" transform="translate(-174.000000, -635.000000)">
            <g id="SECTIONS" transform="translate(0.000000, 225.000000)">
                <g id="2_개인화-구좌_오늘의-추천" transform="translate(0.000000, 340.000000)">
                    <g id="링크-오류시" transform="translate(0.000000, 70.000000)">
                        <g transform="translate(174.000000, 0.000000)" id="thumnail_no_img">
                            <rect id="img1" x="0" y="0" width="150" height="195"></rect>
                            <g id="_Assets-/-Bars-/-Top-/-navi_logo" transform="translate(30.349999, 71.354059)" fill="#D9D9D9" fill-rule="nonzero">
                                <g id="navi_logo" transform="translate(0.000000, 0.000000)">
                                    <path d="M71.3908543,7.97426362 C72.3045859,8.84978464 72.1449233,10.1253889 71.5023245,12.0907389 L71.3048442,12.6649622 C70.5344922,14.8166839 64.840733,30.7225084 64.474552,31.810371 C62.8506941,36.5652703 66.6069617,36.4275522 68.8375743,31.6400354 L69.2102747,30.8176577 C69.46528,30.2388035 69.7265463,29.6157853 69.9794447,28.994762 L70.167321,28.5300899 C71.0036467,26.4472396 71.7029998,24.5185589 71.7029998,24.5185589 L71.8972413,23.8947431 C72.3059732,22.5152473 72.3991894,21.6681562 72.0923048,21.3510421 C71.9765655,21.2241965 72.1414063,21.0683576 72.288711,20.988626 C74.6858305,19.7342133 77.1796383,20.8501106 76.0025385,24.4169361 L75.8176576,24.9240957 L72.9410599,32.3938609 C72.2080441,34.2530556 72.2957255,36.018022 73.3934955,36.018022 C74.1370331,36.0143978 74.9752665,35.5867468 75.8906594,34.8003039 C77.642727,33.3023173 79.0400857,30.6503263 79.7132473,29.180975 L80.2773106,27.8847266 C80.6814908,26.9285254 81.3140411,25.375069 81.8459744,23.8045992 C82.1013127,23.0607599 82.2455934,22.2810925 82.2738593,21.4923844 C82.2350916,21.2924648 82.3185443,21.0883766 82.4842944,20.9777536 C83.0414466,20.6708563 83.6626732,20.5091287 84.2940368,20.5066126 C84.9149453,20.4945692 85.5045336,20.7877582 85.8828222,21.2966797 C86.3289949,21.9192588 86.4757806,22.9105778 86.0929148,24.1516668 L85.979371,24.4855439 L81.9020905,35.5976193 L81.9020905,35.6266126 C83.9986892,34.3287815 85.8875342,34.1693987 87.0795593,34.5937917 L87.2716943,34.6698341 L87.268187,34.6553374 C88.8885378,35.3801697 89.4251474,37.3879549 88.2852903,38.6419146 C88.1730582,38.7651361 87.892478,38.7361428 87.892478,38.5404381 C87.7932484,37.1720963 85.2904763,34.7481988 81.5533645,37.1480884 L81.270785,37.3372166 L79.6269279,41.811561 C76.8807008,49.2057383 73.9311844,54.4595656 69.74946,53.2364113 C66.8349331,52.3847334 67.1716293,48.0756059 70.3071132,44.5094314 C72.4780512,42.1168117 74.8307382,39.907483 77.342662,37.9025858 L77.5460827,37.3299683 L78.2196997,35.3307071 L78.4053596,34.7930556 L78.577215,34.2131898 L77.6069607,35.3505941 C76.7665132,36.2975558 75.0188761,38.0126554 72.3786168,37.6533903 L72.0291743,37.5945321 L71.7345524,37.5253057 C69.5456132,36.9474054 68.9476144,35.3031562 68.8971976,33.8652703 C66.5753964,36.8407066 64.1799428,37.7032569 62.6016791,37.6633911 C60.490313,37.6090287 58.9401074,35.9672838 59.9712396,32.8577536 L60.6882492,30.7359785 C62.4544309,25.5753501 66.1388717,15.0814203 67.3364702,11.5730556 L67.517539,10.9402997 C67.9004255,9.53508786 67.9936417,8.62933073 67.5363836,8.24245154 C67.403108,8.12647838 67.5924997,7.94527033 67.7538333,7.8546663 C68.8656324,7.2313106 70.4263598,7.05010254 71.3908543,7.97426362 Z M76.8200814,40.0915791 L76.1383511,40.6662379 C74.3674358,42.1893693 70.6463492,45.6153004 69.5004451,48.4271495 C68.9533137,49.7680891 69.0936038,50.8335925 70.0300402,50.9278207 C72.1023005,51.1398341 74.267915,46.873064 76.6016506,40.7475986 L76.7815016,40.2727871 L76.8200814,40.0915791 Z M17.3756562,12.7690287 L17.1377517,13.5209915 C17.0684368,13.7320506 16.9856023,13.9819073 16.8909434,14.2655715 L16.7402987,14.7157997 C16.3160608,15.9806963 15.7161948,17.746592 15.0491969,19.694121 L13.7596787,23.4421831 C18.845195,22.1845992 27.9219649,16.0815119 28.9741407,12.145673 C29.103909,11.964465 29.2897934,11.8992301 29.5879099,12.1058072 C30.1245196,12.4754717 30.3314475,13.3996327 30.1245196,14.2549348 C29.2968079,17.658022 23.1696376,22.4781562 17.789512,24.9570824 L17.9778576,25.458825 C18.4566313,26.6986716 19.3320079,28.7622889 20.2788432,30.8492806 L20.6606177,31.6834266 C21.2366841,32.9308239 21.8228687,34.1482169 22.3489404,35.16272 C24.1516683,38.6564113 26.0561065,40.2872838 29.0127205,40.4684918 C30.5774228,40.5632032 32.2398917,39.9823066 33.1988484,39.1324295 L33.393279,38.9463442 L33.37925,38.9789616 C33.5896852,38.7506395 33.933396,39.0659415 33.7755696,39.3413777 C32.5537019,41.2238059 30.5531264,42.41084 28.3638787,42.5523844 C21.4861563,43.0307737 18.8522095,38.2178878 13.9420558,26.3161428 L12.5812418,26.8199012 L10.2734696,33.3433911 C9.24935179,36.558022 9.18271399,38.3193643 9.88416452,38.8267468 C10.0419909,38.9282233 9.96483133,39.2000354 9.69126562,39.2906395 C6.9521013,40.1821831 4.43038664,38.5114448 5.8332877,34.3146663 L13.3282866,12.3305052 C13.791244,10.8808408 13.542229,9.9494314 12.7951842,9.74647838 C9.22129377,8.76795489 0.951192012,16.5743978 2.13664341,23.7828542 C2.32977612,24.9532166 3.08812208,25.6437079 3.53911425,25.6539608 L3.63073304,25.645673 C3.67830304,25.6359562 3.72740857,25.651668 3.76134124,25.6874622 C3.79527391,25.7232565 3.80946321,25.774312 3.79908117,25.8232569 C3.54931998,26.7074951 2.65992859,27.2218337 1.79994715,26.9793643 C0.530321693,26.6930556 0.11646588,25.2868811 0.0463208274,24.5620489 C-0.65162245,17.1035254 6.66450658,8.15184751 13.4299969,7.42339113 C16.0078276,7.14433073 18.427832,8.49976697 17.3756562,12.7690287 Z M43.449611,23.8226288 L43.3714128,24.1054046 L40.3025668,33.2455388 C39.972885,34.1986931 40.1938419,35.1917133 40.8461909,35.3765455 C42.7506291,35.9165455 45.2127205,32.9737267 46.4086936,30.0743978 L46.8362979,29.0082856 C47.1999298,28.0773305 47.5146785,27.2111141 47.7406391,26.5712773 L48.2401097,25.1181028 C48.7669922,23.5434331 49.1636406,22.1338609 48.856756,21.4235254 C48.7760892,21.235069 48.9058575,21.1372166 49.0987564,21.032116 C49.6458878,20.7458072 51.5117462,20.1079549 52.5042987,21.1082233 C53.2495899,21.8543978 53.1658597,23.0660757 52.4924293,24.8989635 L52.3675159,25.2288945 L52.6586226,24.857846 C55.5479317,21.2318025 57.7879796,20.1315011 59.6908739,20.8820568 L59.8800511,20.9632569 C62.461389,22.1664784 61.1216185,26.8054046 57.5863078,27.1025858 C57.3930192,27.1186931 57.2385269,26.9944873 57.3568402,26.7452405 L57.4144525,26.6459415 C57.8423373,25.9682233 57.8002502,24.5076864 56.5516683,24.3808408 C55.3030864,24.2539952 53.4828222,25.7326529 52.174617,27.5664784 C50.9996874,29.1901025 49.7896852,31.9480891 48.5726685,35.7135925 C48.2780593,36.6305052 48.4183494,36.8479549 48.4534219,36.9095656 C48.4702576,36.9424395 48.4702576,36.9817925 48.4534219,37.0146663 C48.2991028,37.3190958 47.4082606,37.6815119 46.5454765,37.6815119 C44.7848357,37.6742636 44.0623416,36.6232569 44.4130669,34.9525187 C42.4104256,36.9276864 40.3902481,37.8808408 38.6085637,37.7141294 C37.815222,37.6429325 37.0912795,37.2180603 36.6257506,36.5504429 C36.1602216,35.8828255 35.9993188,35.0387363 36.1850522,34.2385589 C34.6383537,36.264465 32.3446105,37.8989616 30.0087802,37.6742636 C27.67295,37.4495656 26.2139329,35.8078207 26.9714994,32.3105052 C27.6098194,29.4003039 28.6970677,26.3850019 29.3634457,24.4388274 C29.9210989,22.8079549 30.033331,21.7424515 29.6826057,21.3582905 C29.5703737,21.2314448 29.742229,21.0792301 29.8930409,20.9958744 C31.7238268,20.0028542 34.65589,20.6443307 33.8281784,23.3370824 L33.5019494,24.3734028 C32.6116909,27.146526 31.3467971,30.724656 31.0644633,31.6255388 C30.2648097,34.1878207 30.7488105,35.5722502 31.8816532,35.6374851 C32.947858,35.6988826 34.3402737,34.6912405 35.3951479,33.1312328 L35.5888192,32.8323844 C37.3775181,30.1822166 38.2722785,26.9045452 39.0880487,24.4775473 L39.250391,24.003928 C39.4713479,23.3769482 39.8220732,21.9127871 39.4503044,21.3691629 C39.3521013,21.2314448 39.5239567,21.0792301 39.7484208,20.9523844 C41.4069129,20.0053911 44.365697,20.2332172 43.449611,23.8226288 Z M27.5852687,2.07412939 L29.4406053,7.76406228 L28.2376176,8.1808408 L27.0276155,4.4660757 L26.2945997,7.34728375 L26.1683386,7.39077368 L23.9201896,5.57869315 L25.1231773,9.26808912 L23.9377259,9.68124348 L22.078882,3.9913106 L23.38358,3.53829046 L25.6176999,5.43735087 L26.2805707,2.52714952 L27.5852687,2.07412939 Z M60.4026317,2.9294314 L64.9901182,4.73788778 L64.5727551,5.87949852 L62.8682303,5.20540456 L61.2163143,9.67761932 L60.0238484,9.20647838 L61.6757644,4.73426362 L59.9852687,4.06741798 L60.4026317,2.9294314 Z M53.8230257,1.09923006 L58.0808305,2.16835758 L57.8142793,3.30996832 L54.7910275,2.55251865 L54.5139545,3.73761932 L57.172452,4.40446496 L56.9059008,5.5460757 L54.2438961,4.87923006 L53.9563013,6.1041965 L57.0216402,6.87251865 L56.7515817,8.01412939 L52.4551972,6.93412939 L53.8230257,1.09923006 Z M33.7580333,0.707820665 L37.2161844,6.22379382 L35.9009647,6.45936429 L35.1539199,5.22714952 L32.7339155,5.66567301 L32.4357991,7.08634415 L31.1521446,7.31829046 L32.5971327,0.918022007 L33.7580333,0.707820665 Z M46.2508673,0.0554716715 L47.5204927,0.193189792 L47.2574488,2.80258577 L49.8668448,0.446881067 L51.4030214,0.613592477 L48.7936254,2.89318979 L50.9014843,6.59708241 L49.3758294,6.430371 L47.84316,3.69412939 L47.0996224,4.33923006 L46.913738,6.16218308 L45.6441126,6.02446496 L46.2508673,0.0554716715 Z M42.9961368,0.562854222 C43.2955685,0.869896353 43.4814126,1.27279246 43.5259115,1.70188415 L43.5362537,1.93641127 C43.595318,2.70874486 43.1862721,3.43071385 42.5220506,3.7612027 L42.3508023,3.83547167 L43.8343702,5.93386093 L42.3402806,5.98097503 L41.0355826,4.10365959 L40.0605663,4.13627704 L40.1201896,6.05708241 L38.8435497,6.09332402 L38.6576653,0.0953374433 L41.3126555,0.00835757751 C41.9227384,-0.0445018339 42.5281939,0.154920054 42.9961368,0.562854222 Z M33.4353661,2.37855892 L33.0004667,4.43345825 L34.5226144,4.16164617 L33.4353661,2.37855892 Z M41.2425105,1.20433073 L39.9834068,1.24782066 L40.0219866,2.95480053 L41.3161628,2.9113106 C41.8590855,2.89500187 42.1974652,2.60568509 42.259712,2.17810295 L42.2701355,2.03063946 L42.2562409,1.88396304 C42.1883854,1.4715366 41.886095,1.25531929 41.4233968,1.21236268 L41.2425105,1.20433073 Z" id="Shape"></path>
                                </g>
                            </g>
                        </g>
                    </g>
                </g>
            </g>
        </g>
    </g>
</svg>